<?xml version="1.0" encoding="utf-8" standalone="no"?>
<!DOCTYPE svg PUBLIC "-//W3C//DTD SVG 1.1//EN"
  "http://www.w3.org/Graphics/SVG/1.1/DTD/svg11.dtd">
<!-- Created with matplotlib (http://matplotlib.org/) -->
<svg height="360pt" version="1.1" viewBox="0 0 1080 360" width="1080pt" xmlns="http://www.w3.org/2000/svg" xmlns:xlink="http://www.w3.org/1999/xlink">
 <defs>
  <style type="text/css">
*{stroke-linecap:butt;stroke-linejoin:round;stroke-miterlimit:100000;}
  </style>
 </defs>
 <g id="figure_1">
  <g id="patch_1">
   <path d="M 0 360 
L 1080 360 
L 1080 0 
L 0 0 
z
" style="fill:#ffffff;"/>
  </g>
  <g id="axes_1">
   <g id="patch_2">
    <path d="M 135 315 
L 515.454545 315 
L 515.454545 36 
L 135 36 
z
" style="fill:#e5e5e5;"/>
   </g>
   <g id="matplotlib.axis_1">
    <g id="xtick_1">
     <g id="line2d_1">
      <path clip-path="url(#paba06e5142)" d="M 182.556818 315 
L 182.556818 36 
" style="fill:none;stroke:#ffffff;stroke-linecap:square;stroke-width:0.5;"/>
     </g>
     <g id="line2d_2">
      <defs>
       <path d="M 0 0 
L 0 4 
" id="mb855fdecb4" style="stroke:#555555;stroke-width:0.5;"/>
      </defs>
      <g>
       <use style="fill:#555555;stroke:#555555;stroke-width:0.5;" x="182.556818182" xlink:href="#mb855fdecb4" y="315.0"/>
      </g>
     </g>
     <g id="line2d_3">
      <defs>
       <path d="M 0 0 
L 0 -4 
" id="mb92c807a07" style="stroke:#555555;stroke-width:0.5;"/>
      </defs>
      <g>
       <use style="fill:#555555;stroke:#555555;stroke-width:0.5;" x="182.556818182" xlink:href="#mb92c807a07" y="36.0"/>
      </g>
     </g>
     <g id="text_1">
      <!-- 2000 -->
      <defs>
       <path d="M 50.484375 0 
L 3.078125 0 
Q 3.078125 6.0625 7.296875 12.25 
Q 11.53125 18.453125 23.09375 27.78125 
Q 30.171875 33.453125 35.734375 39.671875 
Q 41.3125 45.90625 41.3125 52.203125 
Q 41.3125 57.625 37.46875 61.15625 
Q 33.640625 64.703125 27.78125 64.703125 
Q 21.875 64.703125 17.875 61.0625 
Q 13.875 57.421875 13.8125 50.203125 
L 4.78125 51.21875 
Q 5.609375 61.28125 11.9375 66.59375 
Q 18.265625 71.921875 27.984375 71.921875 
Q 38.53125 71.921875 44.40625 66.078125 
Q 50.296875 60.25 50.296875 52 
Q 50.296875 45.125 45.328125 38.0625 
Q 40.375 31 25.59375 19.1875 
Q 17.828125 12.984375 15.28125 8.5 
L 50.484375 8.5 
z
" id="ArialUnicodeMS-32"/>
       <path d="M 27.78125 71.921875 
Q 51.125 71.921875 51.125 35.296875 
Q 51.125 16.796875 45.09375 7.78125 
Q 39.0625 -1.21875 27.78125 -1.21875 
Q 4.5 -1.21875 4.5 35.296875 
Q 4.5 53.8125 10.515625 62.859375 
Q 16.546875 71.921875 27.78125 71.921875 
M 27.78125 6 
Q 34.859375 6 38.46875 12.859375 
Q 42.09375 19.734375 42.09375 35.296875 
Q 42.09375 46.140625 40.5 52.359375 
Q 38.921875 58.59375 35.71875 61.640625 
Q 32.515625 64.703125 27.6875 64.703125 
Q 20.609375 64.703125 17.046875 57.71875 
Q 13.484375 50.734375 13.484375 35.296875 
Q 13.484375 24.609375 15.09375 18.359375 
Q 16.703125 12.109375 19.875 9.046875 
Q 23.046875 6 27.78125 6 
" id="ArialUnicodeMS-30"/>
      </defs>
      <g style="fill:#555555;" transform="translate(171.434943182 330.1578125)scale(0.1 -0.1)">
       <use xlink:href="#ArialUnicodeMS-32"/>
       <use x="55.615234375" xlink:href="#ArialUnicodeMS-30"/>
       <use x="111.23046875" xlink:href="#ArialUnicodeMS-30"/>
       <use x="166.845703125" xlink:href="#ArialUnicodeMS-30"/>
      </g>
     </g>
    </g>
    <g id="xtick_2">
     <g id="line2d_4">
      <path clip-path="url(#paba06e5142)" d="M 235.397727 315 
L 235.397727 36 
" style="fill:none;stroke:#ffffff;stroke-linecap:square;stroke-width:0.5;"/>
     </g>
     <g id="line2d_5">
      <g>
       <use style="fill:#555555;stroke:#555555;stroke-width:0.5;" x="235.397727273" xlink:href="#mb855fdecb4" y="315.0"/>
      </g>
     </g>
     <g id="line2d_6">
      <g>
       <use style="fill:#555555;stroke:#555555;stroke-width:0.5;" x="235.397727273" xlink:href="#mb92c807a07" y="36.0"/>
      </g>
     </g>
     <g id="text_2">
      <!-- 4000 -->
      <defs>
       <path d="M 50.984375 17.09375 
L 41.3125 17.09375 
L 41.3125 0 
L 32.515625 0 
L 32.515625 17.09375 
L 1.515625 17.09375 
L 1.515625 25.203125 
L 34.078125 71.578125 
L 41.3125 71.578125 
L 41.3125 25.203125 
L 50.984375 25.203125 
z
M 32.515625 25.203125 
L 32.515625 57.515625 
L 32.328125 57.515625 
L 10.109375 25.203125 
z
" id="ArialUnicodeMS-34"/>
      </defs>
      <g style="fill:#555555;" transform="translate(224.275852273 330.1578125)scale(0.1 -0.1)">
       <use xlink:href="#ArialUnicodeMS-34"/>
       <use x="55.615234375" xlink:href="#ArialUnicodeMS-30"/>
       <use x="111.23046875" xlink:href="#ArialUnicodeMS-30"/>
       <use x="166.845703125" xlink:href="#ArialUnicodeMS-30"/>
      </g>
     </g>
    </g>
    <g id="xtick_3">
     <g id="line2d_7">
      <path clip-path="url(#paba06e5142)" d="M 288.238636 315 
L 288.238636 36 
" style="fill:none;stroke:#ffffff;stroke-linecap:square;stroke-width:0.5;"/>
     </g>
     <g id="line2d_8">
      <g>
       <use style="fill:#555555;stroke:#555555;stroke-width:0.5;" x="288.238636364" xlink:href="#mb855fdecb4" y="315.0"/>
      </g>
     </g>
     <g id="line2d_9">
      <g>
       <use style="fill:#555555;stroke:#555555;stroke-width:0.5;" x="288.238636364" xlink:href="#mb92c807a07" y="36.0"/>
      </g>
     </g>
     <g id="text_3">
      <!-- 6000 -->
      <defs>
       <path d="M 13.09375 36.921875 
Q 19.140625 46.390625 30.328125 46.390625 
Q 39.109375 46.390625 45.265625 39.890625 
Q 51.421875 33.40625 51.421875 23.296875 
Q 51.421875 13.09375 45.28125 5.9375 
Q 39.15625 -1.21875 29 -1.21875 
Q 18.703125 -1.21875 11.453125 6.390625 
Q 4.203125 14.015625 4.203125 33.5 
Q 4.203125 52.640625 10.765625 62.28125 
Q 17.328125 71.921875 29.78125 71.921875 
Q 37.84375 71.921875 43.40625 67.421875 
Q 48.96875 62.9375 50.203125 54.109375 
L 41.40625 53.328125 
Q 39.015625 64.703125 29.296875 64.703125 
Q 22.5625 64.703125 17.71875 58 
Q 12.890625 51.3125 12.890625 36.921875 
z
M 28.8125 6 
Q 34.859375 6 38.625 10.875 
Q 42.390625 15.765625 42.390625 22.703125 
Q 42.390625 29.640625 38.625 34.171875 
Q 34.859375 38.71875 28.515625 38.71875 
Q 22.703125 38.71875 18.5 34.4375 
Q 14.3125 30.171875 14.3125 23.1875 
Q 14.3125 16.0625 18.4375 11.03125 
Q 22.5625 6 28.8125 6 
" id="ArialUnicodeMS-36"/>
      </defs>
      <g style="fill:#555555;" transform="translate(277.116761364 330.1578125)scale(0.1 -0.1)">
       <use xlink:href="#ArialUnicodeMS-36"/>
       <use x="55.615234375" xlink:href="#ArialUnicodeMS-30"/>
       <use x="111.23046875" xlink:href="#ArialUnicodeMS-30"/>
       <use x="166.845703125" xlink:href="#ArialUnicodeMS-30"/>
      </g>
     </g>
    </g>
    <g id="xtick_4">
     <g id="line2d_10">
      <path clip-path="url(#paba06e5142)" d="M 341.079545 315 
L 341.079545 36 
" style="fill:none;stroke:#ffffff;stroke-linecap:square;stroke-width:0.5;"/>
     </g>
     <g id="line2d_11">
      <g>
       <use style="fill:#555555;stroke:#555555;stroke-width:0.5;" x="341.079545455" xlink:href="#mb855fdecb4" y="315.0"/>
      </g>
     </g>
     <g id="line2d_12">
      <g>
       <use style="fill:#555555;stroke:#555555;stroke-width:0.5;" x="341.079545455" xlink:href="#mb92c807a07" y="36.0"/>
      </g>
     </g>
     <g id="text_4">
      <!-- 8000 -->
      <defs>
       <path d="M 37.890625 38.71875 
Q 51.3125 34.421875 51.3125 20.40625 
Q 51.3125 11.1875 44.71875 4.984375 
Q 38.140625 -1.21875 27.78125 -1.21875 
Q 17.328125 -1.21875 10.765625 5.03125 
Q 4.203125 11.28125 4.203125 20.703125 
Q 4.203125 27.484375 7.890625 32.5625 
Q 11.578125 37.640625 17.828125 38.71875 
L 17.828125 38.921875 
Q 7.078125 42.234375 7.078125 53.421875 
Q 7.078125 61.328125 12.734375 66.625 
Q 18.40625 71.921875 27.59375 71.921875 
Q 36.921875 71.921875 42.65625 66.453125 
Q 48.390625 60.984375 48.390625 53.21875 
Q 48.390625 42.671875 37.890625 38.921875 
z
M 27.78125 42.1875 
Q 32.71875 42.1875 36.0625 45.328125 
Q 39.40625 48.484375 39.40625 53.21875 
Q 39.40625 58.0625 36.015625 61.375 
Q 32.625 64.703125 27.6875 64.703125 
Q 22.65625 64.703125 19.375 61.421875 
Q 16.109375 58.15625 16.109375 53.71875 
Q 16.109375 48.390625 19.484375 45.28125 
Q 22.859375 42.1875 27.78125 42.1875 
M 27.78125 6 
Q 33.984375 6 38.125 10 
Q 42.28125 14.015625 42.28125 20.40625 
Q 42.28125 26.8125 38 30.90625 
Q 33.734375 35.015625 27.59375 35.015625 
Q 21.1875 35.015625 17.1875 30.78125 
Q 13.1875 26.5625 13.1875 20.609375 
Q 13.1875 14.40625 17.3125 10.203125 
Q 21.4375 6 27.78125 6 
" id="ArialUnicodeMS-38"/>
      </defs>
      <g style="fill:#555555;" transform="translate(329.957670455 330.1578125)scale(0.1 -0.1)">
       <use xlink:href="#ArialUnicodeMS-38"/>
       <use x="55.615234375" xlink:href="#ArialUnicodeMS-30"/>
       <use x="111.23046875" xlink:href="#ArialUnicodeMS-30"/>
       <use x="166.845703125" xlink:href="#ArialUnicodeMS-30"/>
      </g>
     </g>
    </g>
    <g id="xtick_5">
     <g id="line2d_13">
      <path clip-path="url(#paba06e5142)" d="M 393.920455 315 
L 393.920455 36 
" style="fill:none;stroke:#ffffff;stroke-linecap:square;stroke-width:0.5;"/>
     </g>
     <g id="line2d_14">
      <g>
       <use style="fill:#555555;stroke:#555555;stroke-width:0.5;" x="393.920454545" xlink:href="#mb855fdecb4" y="315.0"/>
      </g>
     </g>
     <g id="line2d_15">
      <g>
       <use style="fill:#555555;stroke:#555555;stroke-width:0.5;" x="393.920454545" xlink:href="#mb92c807a07" y="36.0"/>
      </g>
     </g>
     <g id="text_5">
      <!-- 10000 -->
      <defs>
       <path d="M 37.5 0 
L 28.71875 0 
L 28.71875 56 
Q 22.125 49.75 11.078125 45.40625 
L 11.078125 53.90625 
Q 26.265625 61.1875 31.78125 71.921875 
L 37.5 71.921875 
z
" id="ArialUnicodeMS-31"/>
      </defs>
      <g style="fill:#555555;" transform="translate(380.018110795 330.1578125)scale(0.1 -0.1)">
       <use xlink:href="#ArialUnicodeMS-31"/>
       <use x="55.615234375" xlink:href="#ArialUnicodeMS-30"/>
       <use x="111.23046875" xlink:href="#ArialUnicodeMS-30"/>
       <use x="166.845703125" xlink:href="#ArialUnicodeMS-30"/>
       <use x="222.4609375" xlink:href="#ArialUnicodeMS-30"/>
      </g>
     </g>
    </g>
    <g id="xtick_6">
     <g id="line2d_16">
      <path clip-path="url(#paba06e5142)" d="M 446.761364 315 
L 446.761364 36 
" style="fill:none;stroke:#ffffff;stroke-linecap:square;stroke-width:0.5;"/>
     </g>
     <g id="line2d_17">
      <g>
       <use style="fill:#555555;stroke:#555555;stroke-width:0.5;" x="446.761363636" xlink:href="#mb855fdecb4" y="315.0"/>
      </g>
     </g>
     <g id="line2d_18">
      <g>
       <use style="fill:#555555;stroke:#555555;stroke-width:0.5;" x="446.761363636" xlink:href="#mb92c807a07" y="36.0"/>
      </g>
     </g>
     <g id="text_6">
      <!-- 12000 -->
      <g style="fill:#555555;" transform="translate(432.859019886 330.1578125)scale(0.1 -0.1)">
       <use xlink:href="#ArialUnicodeMS-31"/>
       <use x="55.615234375" xlink:href="#ArialUnicodeMS-32"/>
       <use x="111.23046875" xlink:href="#ArialUnicodeMS-30"/>
       <use x="166.845703125" xlink:href="#ArialUnicodeMS-30"/>
       <use x="222.4609375" xlink:href="#ArialUnicodeMS-30"/>
      </g>
     </g>
    </g>
    <g id="xtick_7">
     <g id="line2d_19">
      <path clip-path="url(#paba06e5142)" d="M 499.602273 315 
L 499.602273 36 
" style="fill:none;stroke:#ffffff;stroke-linecap:square;stroke-width:0.5;"/>
     </g>
     <g id="line2d_20">
      <g>
       <use style="fill:#555555;stroke:#555555;stroke-width:0.5;" x="499.602272727" xlink:href="#mb855fdecb4" y="315.0"/>
      </g>
     </g>
     <g id="line2d_21">
      <g>
       <use style="fill:#555555;stroke:#555555;stroke-width:0.5;" x="499.602272727" xlink:href="#mb92c807a07" y="36.0"/>
      </g>
     </g>
     <g id="text_7">
      <!-- 14000 -->
      <g style="fill:#555555;" transform="translate(485.699928977 330.1578125)scale(0.1 -0.1)">
       <use xlink:href="#ArialUnicodeMS-31"/>
       <use x="55.615234375" xlink:href="#ArialUnicodeMS-34"/>
       <use x="111.23046875" xlink:href="#ArialUnicodeMS-30"/>
       <use x="166.845703125" xlink:href="#ArialUnicodeMS-30"/>
       <use x="222.4609375" xlink:href="#ArialUnicodeMS-30"/>
      </g>
     </g>
    </g>
    <g id="text_8">
     <!-- Step -->
     <defs>
      <path d="M 51.703125 23.6875 
L 12.890625 23.6875 
Q 13.421875 15.09375 17.796875 10.546875 
Q 22.171875 6 28.71875 6 
Q 33.734375 6 37.15625 8.65625 
Q 40.578125 11.328125 42.390625 16.703125 
L 51.421875 15.578125 
Q 49.21875 7.46875 43.359375 3.125 
Q 37.5 -1.21875 28.71875 -1.21875 
Q 17.046875 -1.21875 10.46875 5.9375 
Q 3.90625 13.09375 3.90625 25.484375 
Q 3.90625 37.75 10.28125 45.359375 
Q 16.65625 52.984375 28.21875 52.984375 
Q 33.890625 52.984375 39.140625 50.484375 
Q 44.390625 48 48.046875 42.015625 
Q 51.703125 36.03125 51.703125 23.6875 
M 42.671875 30.90625 
Q 42.140625 38.8125 37.765625 42.296875 
Q 33.40625 45.796875 28.21875 45.796875 
Q 22.015625 45.796875 18.015625 41.640625 
Q 14.015625 37.5 13.375 30.90625 
z
" id="ArialUnicodeMS-65"/>
      <path d="M 14.984375 45.125 
Q 19.921875 52.984375 29.78125 52.984375 
Q 39.984375 52.984375 45.890625 45.578125 
Q 51.8125 38.1875 51.8125 26.3125 
Q 51.8125 13.671875 45.265625 6.21875 
Q 38.71875 -1.21875 29.203125 -1.21875 
Q 20.84375 -1.21875 15.828125 5.421875 
L 15.578125 5.421875 
L 15.578125 -19.921875 
L 6.78125 -19.921875 
L 6.78125 51.8125 
L 14.796875 51.8125 
L 14.796875 45.125 
z
M 28.609375 6 
Q 34.765625 6 38.796875 11.109375 
Q 42.828125 16.21875 42.828125 26.3125 
Q 42.828125 35.84375 38.9375 40.96875 
Q 35.0625 46.09375 29 46.09375 
Q 22.75 46.09375 18.71875 40.375 
Q 14.703125 34.671875 14.703125 25.59375 
Q 14.703125 15.96875 18.546875 10.984375 
Q 22.40625 6 28.609375 6 
" id="ArialUnicodeMS-70"/>
      <path d="M 50.203125 50.59375 
Q 49.609375 57.421875 45.265625 60.859375 
Q 40.921875 64.3125 32.8125 64.3125 
Q 25.484375 64.3125 20.890625 61.578125 
Q 16.3125 58.84375 16.3125 53.609375 
Q 16.3125 48.96875 19.84375 46.703125 
Q 23.390625 44.4375 33.40625 42.1875 
Q 42.28125 40.234375 47.890625 38.1875 
Q 53.515625 36.140625 57.515625 31.8125 
Q 61.53125 27.484375 61.53125 20.21875 
Q 61.53125 10.984375 54.171875 4.875 
Q 46.828125 -1.21875 35.015625 -1.21875 
Q 19.921875 -1.21875 12.421875 5.515625 
Q 4.9375 12.25 4.5 23 
L 13.484375 23.78125 
Q 14.109375 15.1875 20.109375 11.25 
Q 26.125 7.328125 34.625 7.328125 
Q 42.578125 7.328125 47.484375 10.59375 
Q 52.390625 13.875 52.390625 19.484375 
Q 52.390625 25.34375 47.265625 28.03125 
Q 42.140625 30.71875 30.046875 33.328125 
Q 17.96875 35.9375 12.640625 40.671875 
Q 7.328125 45.40625 7.328125 52.984375 
Q 7.328125 61.578125 14.0625 67.1875 
Q 20.796875 72.796875 32.421875 72.796875 
Q 44.34375 72.796875 51.59375 67.203125 
Q 58.84375 61.625 59.28125 51.3125 
z
" id="ArialUnicodeMS-53"/>
      <path d="M 26.90625 0.09375 
Q 23 -0.6875 20.3125 -0.6875 
Q 14.546875 -0.6875 11.90625 1.34375 
Q 9.28125 3.375 8.6875 6.5 
Q 8.109375 9.625 8.109375 15.1875 
L 8.109375 45.015625 
L 1.703125 45.015625 
L 1.703125 51.8125 
L 8.109375 51.8125 
L 8.109375 64.703125 
L 16.890625 70.015625 
L 16.890625 51.8125 
L 25.6875 51.8125 
L 25.6875 45.015625 
L 16.890625 45.015625 
L 16.890625 14.703125 
Q 16.890625 10.796875 17.6875 9.15625 
Q 18.5 7.515625 21.78125 7.515625 
Q 23.6875 7.515625 25.6875 7.90625 
z
" id="ArialUnicodeMS-74"/>
     </defs>
     <g style="fill:#555555;" transform="translate(312.885085227 345.885625)scale(0.12 -0.12)">
      <use xlink:href="#ArialUnicodeMS-53"/>
      <use x="66.69921875" xlink:href="#ArialUnicodeMS-74"/>
      <use x="94.482421875" xlink:href="#ArialUnicodeMS-65"/>
      <use x="150.09765625" xlink:href="#ArialUnicodeMS-70"/>
     </g>
    </g>
   </g>
   <g id="matplotlib.axis_2">
    <g id="ytick_1">
     <g id="line2d_22">
      <path clip-path="url(#paba06e5142)" d="M 135 315 
L 515.454545 315 
" style="fill:none;stroke:#ffffff;stroke-linecap:square;stroke-width:0.5;"/>
     </g>
     <g id="line2d_23">
      <defs>
       <path d="M 0 0 
L -4 0 
" id="m7cb9521a14" style="stroke:#555555;stroke-width:0.5;"/>
      </defs>
      <g>
       <use style="fill:#555555;stroke:#555555;stroke-width:0.5;" x="135.0" xlink:href="#m7cb9521a14" y="315.0"/>
      </g>
     </g>
     <g id="line2d_24">
      <defs>
       <path d="M 0 0 
L 4 0 
" id="mc877381208" style="stroke:#555555;stroke-width:0.5;"/>
      </defs>
      <g>
       <use style="fill:#555555;stroke:#555555;stroke-width:0.5;" x="515.454545455" xlink:href="#mc877381208" y="315.0"/>
      </g>
     </g>
     <g id="text_9">
      <!-- 0.72 -->
      <defs>
       <path d="M 51.125 63.8125 
Q 40.578125 52.25 32.859375 35.203125 
Q 25.140625 18.171875 23.78125 0 
L 14.796875 0 
Q 15.140625 14.59375 22 32.046875 
Q 28.859375 49.515625 39.796875 62.109375 
L 4.78125 62.109375 
L 4.78125 70.609375 
L 51.125 70.609375 
z
" id="ArialUnicodeMS-37"/>
       <path d="M 18.890625 0 
L 8.890625 0 
L 8.890625 10.015625 
L 18.890625 10.015625 
z
" id="ArialUnicodeMS-2e"/>
      </defs>
      <g style="fill:#555555;" transform="translate(107.5390625 317.5828125)scale(0.1 -0.1)">
       <use xlink:href="#ArialUnicodeMS-30"/>
       <use x="55.615234375" xlink:href="#ArialUnicodeMS-2e"/>
       <use x="83.3984375" xlink:href="#ArialUnicodeMS-37"/>
       <use x="139.013671875" xlink:href="#ArialUnicodeMS-32"/>
      </g>
     </g>
    </g>
    <g id="ytick_2">
     <g id="line2d_25">
      <path clip-path="url(#paba06e5142)" d="M 135 280.125 
L 515.454545 280.125 
" style="fill:none;stroke:#ffffff;stroke-linecap:square;stroke-width:0.5;"/>
     </g>
     <g id="line2d_26">
      <g>
       <use style="fill:#555555;stroke:#555555;stroke-width:0.5;" x="135.0" xlink:href="#m7cb9521a14" y="280.125"/>
      </g>
     </g>
     <g id="line2d_27">
      <g>
       <use style="fill:#555555;stroke:#555555;stroke-width:0.5;" x="515.454545455" xlink:href="#mc877381208" y="280.125"/>
      </g>
     </g>
     <g id="text_10">
      <!-- 0.74 -->
      <g style="fill:#555555;" transform="translate(107.5390625 282.7078125)scale(0.1 -0.1)">
       <use xlink:href="#ArialUnicodeMS-30"/>
       <use x="55.615234375" xlink:href="#ArialUnicodeMS-2e"/>
       <use x="83.3984375" xlink:href="#ArialUnicodeMS-37"/>
       <use x="139.013671875" xlink:href="#ArialUnicodeMS-34"/>
      </g>
     </g>
    </g>
    <g id="ytick_3">
     <g id="line2d_28">
      <path clip-path="url(#paba06e5142)" d="M 135 245.25 
L 515.454545 245.25 
" style="fill:none;stroke:#ffffff;stroke-linecap:square;stroke-width:0.5;"/>
     </g>
     <g id="line2d_29">
      <g>
       <use style="fill:#555555;stroke:#555555;stroke-width:0.5;" x="135.0" xlink:href="#m7cb9521a14" y="245.25"/>
      </g>
     </g>
     <g id="line2d_30">
      <g>
       <use style="fill:#555555;stroke:#555555;stroke-width:0.5;" x="515.454545455" xlink:href="#mc877381208" y="245.25"/>
      </g>
     </g>
     <g id="text_11">
      <!-- 0.76 -->
      <g style="fill:#555555;" transform="translate(107.5390625 247.8328125)scale(0.1 -0.1)">
       <use xlink:href="#ArialUnicodeMS-30"/>
       <use x="55.615234375" xlink:href="#ArialUnicodeMS-2e"/>
       <use x="83.3984375" xlink:href="#ArialUnicodeMS-37"/>
       <use x="139.013671875" xlink:href="#ArialUnicodeMS-36"/>
      </g>
     </g>
    </g>
    <g id="ytick_4">
     <g id="line2d_31">
      <path clip-path="url(#paba06e5142)" d="M 135 210.375 
L 515.454545 210.375 
" style="fill:none;stroke:#ffffff;stroke-linecap:square;stroke-width:0.5;"/>
     </g>
     <g id="line2d_32">
      <g>
       <use style="fill:#555555;stroke:#555555;stroke-width:0.5;" x="135.0" xlink:href="#m7cb9521a14" y="210.375"/>
      </g>
     </g>
     <g id="line2d_33">
      <g>
       <use style="fill:#555555;stroke:#555555;stroke-width:0.5;" x="515.454545455" xlink:href="#mc877381208" y="210.375"/>
      </g>
     </g>
     <g id="text_12">
      <!-- 0.78 -->
      <g style="fill:#555555;" transform="translate(107.5390625 212.9578125)scale(0.1 -0.1)">
       <use xlink:href="#ArialUnicodeMS-30"/>
       <use x="55.615234375" xlink:href="#ArialUnicodeMS-2e"/>
       <use x="83.3984375" xlink:href="#ArialUnicodeMS-37"/>
       <use x="139.013671875" xlink:href="#ArialUnicodeMS-38"/>
      </g>
     </g>
    </g>
    <g id="ytick_5">
     <g id="line2d_34">
      <path clip-path="url(#paba06e5142)" d="M 135 175.5 
L 515.454545 175.5 
" style="fill:none;stroke:#ffffff;stroke-linecap:square;stroke-width:0.5;"/>
     </g>
     <g id="line2d_35">
      <g>
       <use style="fill:#555555;stroke:#555555;stroke-width:0.5;" x="135.0" xlink:href="#m7cb9521a14" y="175.5"/>
      </g>
     </g>
     <g id="line2d_36">
      <g>
       <use style="fill:#555555;stroke:#555555;stroke-width:0.5;" x="515.454545455" xlink:href="#mc877381208" y="175.5"/>
      </g>
     </g>
     <g id="text_13">
      <!-- 0.80 -->
      <g style="fill:#555555;" transform="translate(107.5390625 178.0828125)scale(0.1 -0.1)">
       <use xlink:href="#ArialUnicodeMS-30"/>
       <use x="55.615234375" xlink:href="#ArialUnicodeMS-2e"/>
       <use x="83.3984375" xlink:href="#ArialUnicodeMS-38"/>
       <use x="139.013671875" xlink:href="#ArialUnicodeMS-30"/>
      </g>
     </g>
    </g>
    <g id="ytick_6">
     <g id="line2d_37">
      <path clip-path="url(#paba06e5142)" d="M 135 140.625 
L 515.454545 140.625 
" style="fill:none;stroke:#ffffff;stroke-linecap:square;stroke-width:0.5;"/>
     </g>
     <g id="line2d_38">
      <g>
       <use style="fill:#555555;stroke:#555555;stroke-width:0.5;" x="135.0" xlink:href="#m7cb9521a14" y="140.625"/>
      </g>
     </g>
     <g id="line2d_39">
      <g>
       <use style="fill:#555555;stroke:#555555;stroke-width:0.5;" x="515.454545455" xlink:href="#mc877381208" y="140.625"/>
      </g>
     </g>
     <g id="text_14">
      <!-- 0.82 -->
      <g style="fill:#555555;" transform="translate(107.5390625 143.2078125)scale(0.1 -0.1)">
       <use xlink:href="#ArialUnicodeMS-30"/>
       <use x="55.615234375" xlink:href="#ArialUnicodeMS-2e"/>
       <use x="83.3984375" xlink:href="#ArialUnicodeMS-38"/>
       <use x="139.013671875" xlink:href="#ArialUnicodeMS-32"/>
      </g>
     </g>
    </g>
    <g id="ytick_7">
     <g id="line2d_40">
      <path clip-path="url(#paba06e5142)" d="M 135 105.75 
L 515.454545 105.75 
" style="fill:none;stroke:#ffffff;stroke-linecap:square;stroke-width:0.5;"/>
     </g>
     <g id="line2d_41">
      <g>
       <use style="fill:#555555;stroke:#555555;stroke-width:0.5;" x="135.0" xlink:href="#m7cb9521a14" y="105.75"/>
      </g>
     </g>
     <g id="line2d_42">
      <g>
       <use style="fill:#555555;stroke:#555555;stroke-width:0.5;" x="515.454545455" xlink:href="#mc877381208" y="105.75"/>
      </g>
     </g>
     <g id="text_15">
      <!-- 0.84 -->
      <g style="fill:#555555;" transform="translate(107.5390625 108.3328125)scale(0.1 -0.1)">
       <use xlink:href="#ArialUnicodeMS-30"/>
       <use x="55.615234375" xlink:href="#ArialUnicodeMS-2e"/>
       <use x="83.3984375" xlink:href="#ArialUnicodeMS-38"/>
       <use x="139.013671875" xlink:href="#ArialUnicodeMS-34"/>
      </g>
     </g>
    </g>
    <g id="ytick_8">
     <g id="line2d_43">
      <path clip-path="url(#paba06e5142)" d="M 135 70.875 
L 515.454545 70.875 
" style="fill:none;stroke:#ffffff;stroke-linecap:square;stroke-width:0.5;"/>
     </g>
     <g id="line2d_44">
      <g>
       <use style="fill:#555555;stroke:#555555;stroke-width:0.5;" x="135.0" xlink:href="#m7cb9521a14" y="70.875"/>
      </g>
     </g>
     <g id="line2d_45">
      <g>
       <use style="fill:#555555;stroke:#555555;stroke-width:0.5;" x="515.454545455" xlink:href="#mc877381208" y="70.875"/>
      </g>
     </g>
     <g id="text_16">
      <!-- 0.86 -->
      <g style="fill:#555555;" transform="translate(107.5390625 73.4578125)scale(0.1 -0.1)">
       <use xlink:href="#ArialUnicodeMS-30"/>
       <use x="55.615234375" xlink:href="#ArialUnicodeMS-2e"/>
       <use x="83.3984375" xlink:href="#ArialUnicodeMS-38"/>
       <use x="139.013671875" xlink:href="#ArialUnicodeMS-36"/>
      </g>
     </g>
    </g>
    <g id="ytick_9">
     <g id="text_17">
      <!-- 0.88 -->
      <g style="fill:#555555;" transform="translate(107.5390625 38.5828125)scale(0.1 -0.1)">
       <use xlink:href="#ArialUnicodeMS-30"/>
       <use x="55.615234375" xlink:href="#ArialUnicodeMS-2e"/>
       <use x="83.3984375" xlink:href="#ArialUnicodeMS-38"/>
       <use x="139.013671875" xlink:href="#ArialUnicodeMS-38"/>
      </g>
     </g>
    </g>
    <g id="text_18">
     <!-- Accuracy -->
     <defs>
      <path d="M 66.796875 0 
L 56.109375 0 
L 47.703125 21.78125 
L 17.828125 21.78125 
L 9.90625 0 
L -0.09375 0 
L 27.390625 71.578125 
L 37.59375 71.578125 
z
M 44.828125 29.296875 
Q 36.03125 52.546875 34.90625 55.6875 
Q 33.796875 58.84375 32.421875 64.109375 
L 32.171875 64.109375 
Q 30.8125 56.890625 28.515625 50.734375 
L 20.515625 29.296875 
z
" id="ArialUnicodeMS-41"/>
      <path d="M 34.625 50.203125 
L 31.59375 42.09375 
Q 28.328125 44 25.203125 44 
Q 20.265625 44 17.71875 39.578125 
Q 15.1875 35.15625 15.1875 27.203125 
L 15.1875 0 
L 6.390625 0 
L 6.390625 51.8125 
L 14.40625 51.8125 
L 14.40625 44 
L 14.59375 44 
Q 18.796875 52.984375 25.59375 52.984375 
Q 30.078125 52.984375 34.625 50.203125 
" id="ArialUnicodeMS-72"/>
      <path d="M 51.609375 0 
L 42.390625 0 
Q 41.109375 2.4375 40.578125 6.390625 
Q 31.734375 -1.21875 21.484375 -1.21875 
Q 13.28125 -1.21875 8.546875 2.875 
Q 3.8125 6.984375 3.8125 13.71875 
Q 3.8125 20.171875 8.375 24.34375 
Q 12.9375 28.515625 24.21875 29.890625 
L 32.421875 31.109375 
Q 37.015625 31.84375 39.984375 32.90625 
Q 39.984375 36.859375 39.734375 38.5 
Q 39.5 40.140625 38.296875 41.890625 
Q 37.109375 43.65625 34.46875 44.71875 
Q 31.84375 45.796875 27.390625 45.796875 
Q 21.734375 45.796875 18.4375 43.703125 
Q 15.140625 41.609375 13.921875 35.890625 
L 5.328125 37.015625 
Q 6.734375 44.96875 12.59375 48.96875 
Q 18.453125 52.984375 28.71875 52.984375 
Q 38.03125 52.984375 42.40625 50.21875 
Q 46.78125 47.46875 47.78125 43.5625 
Q 48.78125 39.65625 48.78125 33.5 
L 48.78125 21.6875 
Q 48.78125 10.890625 49.1875 7.203125 
Q 49.609375 3.515625 51.609375 0 
M 39.984375 22.796875 
L 39.984375 25.984375 
Q 33.109375 23.6875 23.140625 22.34375 
Q 13.1875 21 13.1875 13.921875 
Q 13.1875 10.359375 15.875 8.03125 
Q 18.5625 5.71875 23.578125 5.71875 
Q 30.078125 5.71875 35.03125 9.59375 
Q 39.984375 13.484375 39.984375 22.796875 
" id="ArialUnicodeMS-61"/>
      <path d="M 48.6875 0 
L 40.828125 0 
L 40.828125 7.625 
L 40.578125 7.625 
Q 34.625 -1.21875 24.3125 -1.21875 
Q 18.890625 -1.21875 14.28125 1.296875 
Q 9.671875 3.8125 8.125 8.21875 
Q 6.59375 12.640625 6.59375 19.671875 
L 6.59375 51.8125 
L 15.375 51.8125 
L 15.375 23.09375 
Q 15.375 16.21875 16.03125 13.234375 
Q 16.703125 10.25 19.484375 8.3125 
Q 22.265625 6.390625 26.125 6.390625 
Q 31.109375 6.390625 35.5 9.828125 
Q 39.890625 13.28125 39.890625 24.125 
L 39.890625 51.8125 
L 48.6875 51.8125 
z
" id="ArialUnicodeMS-75"/>
      <path d="M 49.125 17.921875 
Q 47.40625 8.015625 41.296875 3.390625 
Q 35.203125 -1.21875 27.484375 -1.21875 
Q 16.21875 -1.21875 10.0625 6.171875 
Q 3.90625 13.578125 3.90625 25.78125 
Q 3.90625 35.890625 7.4375 41.96875 
Q 10.984375 48.046875 16.296875 50.515625 
Q 21.625 52.984375 27.484375 52.984375 
Q 35.5 52.984375 41.1875 48.828125 
Q 46.875 44.671875 48.1875 36.625 
L 39.703125 35.296875 
Q 38.375 40.53125 35.421875 43.15625 
Q 32.46875 45.796875 27.875 45.796875 
Q 20.515625 45.796875 16.703125 40.578125 
Q 12.890625 35.359375 12.890625 25.984375 
Q 12.890625 16.40625 16.625 11.203125 
Q 20.359375 6 27.390625 6 
Q 33.0625 6 36.296875 9.25 
Q 39.546875 12.5 40.375 19 
z
" id="ArialUnicodeMS-63"/>
      <path d="M 49.21875 51.8125 
L 29.390625 -0.875 
Q 29.34375 -0.984375 29.296875 -1.21875 
Q 26.46875 -10.015625 22.671875 -15.5 
Q 18.890625 -21 11.921875 -21 
Q 9.578125 -21 6.203125 -20.015625 
L 5.328125 -11.71875 
Q 7.859375 -12.5 10.296875 -12.5 
Q 15.1875 -12.5 17.0625 -9.8125 
Q 18.953125 -7.125 21.296875 -0.09375 
L 1.609375 51.8125 
L 11.078125 51.8125 
L 23.296875 17.875 
Q 24.359375 14.75 25.59375 9.8125 
L 25.78125 9.8125 
Q 27 15.484375 28.90625 20.609375 
L 40.28125 51.8125 
z
" id="ArialUnicodeMS-79"/>
     </defs>
     <g style="fill:#555555;" transform="translate(100.0190625 200.173125)rotate(-90.0)scale(0.12 -0.12)">
      <use xlink:href="#ArialUnicodeMS-41"/>
      <use x="66.69921875" xlink:href="#ArialUnicodeMS-63"/>
      <use x="116.69921875" xlink:href="#ArialUnicodeMS-63"/>
      <use x="166.69921875" xlink:href="#ArialUnicodeMS-75"/>
      <use x="222.314453125" xlink:href="#ArialUnicodeMS-72"/>
      <use x="255.615234375" xlink:href="#ArialUnicodeMS-61"/>
      <use x="311.23046875" xlink:href="#ArialUnicodeMS-63"/>
      <use x="361.23046875" xlink:href="#ArialUnicodeMS-79"/>
     </g>
    </g>
   </g>
   <g id="line2d_46">
    <path clip-path="url(#paba06e5142)" d="M 135 304.828119 
L 140.284091 252.225003 
L 145.568182 212.426476 
L 150.852273 229.992193 
L 166.704545 247.038452 
L 171.988636 201.075003 
L 177.272727 229.863965 
L 182.556818 214.046055 
L 187.840909 207.692304 
L 193.125 225.632815 
L 208.977273 215.087835 
L 214.261364 186.709827 
L 219.545455 207.468759 
L 224.829545 194.100003 
L 230.113636 195.11718 
L 235.397727 169.272329 
L 245.965909 191.775005 
L 256.534091 192.240005 
L 261.818182 191.596142 
L 267.102273 219.093759 
L 272.386364 188.91346 
L 277.670455 156.97266 
L 282.954545 166.110597 
L 288.238636 155.156257 
L 298.806818 180.194702 
L 304.090909 172.012496 
L 309.375 189.200904 
L 319.943182 136.265629 
L 325.227273 152.613302 
L 335.795455 160.645831 
L 341.079545 156.318748 
L 346.363636 173.008925 
L 356.931818 167.683191 
L 367.5 137.511161 
L 372.784091 128.552877 
L 383.352273 153.703129 
L 388.636364 129.894229 
L 420.340909 133.090281 
L 425.625 144.361623 
L 430.909091 144.649055 
L 436.193182 123.187508 
L 457.329545 133.282901 
L 467.897727 127.882212 
L 483.75 115.714285 
L 489.034091 116.480765 
L 504.886364 92.783659 
L 510.170455 118.537499 
L 515.454545 91.482957 
" style="fill:none;stroke:#00acc1;stroke-linecap:square;"/>
   </g>
   <g id="line2d_47">
    <path clip-path="url(#paba06e5142)" d="M 137.430682 122.09766 
L 145.145455 107.384745 
L 152.860227 128.091834 
L 160.575 125.912097 
L 168.289773 99.210938 
L 176.004545 106.294876 
L 183.719318 99.755872 
L 191.434091 101.935505 
L 199.148864 115.558552 
L 206.863636 92.671829 
L 214.578409 104.115243 
L 222.293182 92.126999 
L 230.007955 82.863323 
L 237.722727 89.402327 
L 245.4375 86.132825 
L 253.152273 77.414083 
L 260.867045 98.666003 
L 268.581818 75.77928 
L 276.296591 77.414083 
L 284.011364 76.324215 
L 291.726136 77.959018 
L 299.440909 62.156233 
L 307.155682 58.886731 
L 314.870455 57.251928 
L 322.585227 61.611299 
L 330.3 72.509778 
L 338.014773 60.521534 
L 345.729545 67.060539 
L 353.444318 57.796863 
L 361.159091 54.52736 
L 368.873864 74.144581 
L 376.588636 61.066365 
L 384.303409 61.611299 
L 392.018182 57.796863 
L 399.732955 59.431666 
L 407.447727 59.431666 
L 415.1625 60.521534 
L 422.877273 45.263684 
L 430.592045 57.796863 
L 438.306818 60.521534 
L 446.021591 41.994182 
L 453.736364 47.443318 
L 461.451136 52.347623 
L 469.165909 45.808619 
L 476.880682 47.988252 
L 484.595455 37.634811 
L 492.310227 45.808619 
L 500.025 51.257858 
L 507.739773 40.904314 
L 515.454545 41.994182 
" style="fill:none;stroke:#f57c00;stroke-linecap:square;"/>
   </g>
   <g id="patch_3">
    <path d="M 135 36 
L 515.454545 36 
" style="fill:none;stroke:#ffffff;stroke-linecap:square;stroke-linejoin:miter;"/>
   </g>
   <g id="patch_4">
    <path d="M 515.454545 315 
L 515.454545 36 
" style="fill:none;stroke:#ffffff;stroke-linecap:square;stroke-linejoin:miter;"/>
   </g>
   <g id="patch_5">
    <path d="M 135 315 
L 515.454545 315 
" style="fill:none;stroke:#ffffff;stroke-linecap:square;stroke-linejoin:miter;"/>
   </g>
   <g id="patch_6">
    <path d="M 135 315 
L 135 36 
" style="fill:none;stroke:#ffffff;stroke-linecap:square;stroke-linejoin:miter;"/>
   </g>
   <g id="text_19">
    <!-- Accuracy -->
    <g transform="translate(295.619522727 31.0)scale(0.144 -0.144)">
     <use xlink:href="#ArialUnicodeMS-41"/>
     <use x="66.69921875" xlink:href="#ArialUnicodeMS-63"/>
     <use x="116.69921875" xlink:href="#ArialUnicodeMS-63"/>
     <use x="166.69921875" xlink:href="#ArialUnicodeMS-75"/>
     <use x="222.314453125" xlink:href="#ArialUnicodeMS-72"/>
     <use x="255.615234375" xlink:href="#ArialUnicodeMS-61"/>
     <use x="311.23046875" xlink:href="#ArialUnicodeMS-63"/>
     <use x="361.23046875" xlink:href="#ArialUnicodeMS-79"/>
    </g>
   </g>
   <g id="legend_1">
    <g id="patch_7">
     <path d="M 141 79.56 
L 207.541875 79.56 
L 207.541875 42 
L 141 42 
z
" style="fill:#e5e5e5;stroke:#ffffff;stroke-linejoin:miter;stroke-width:0.5;"/>
    </g>
    <g id="line2d_48">
     <path d="M 149.4 51.189375 
L 166.2 51.189375 
" style="fill:none;stroke:#00acc1;stroke-linecap:square;"/>
    </g>
    <g id="line2d_49"/>
    <g id="text_20">
     <!-- train -->
     <defs>
      <path d="M 49.03125 0 
L 40.1875 0 
L 40.1875 31.5 
Q 40.1875 39.453125 37.328125 42.421875 
Q 34.46875 45.40625 29.390625 45.40625 
Q 25.484375 45.40625 21.984375 43.5 
Q 18.5 41.609375 17.03125 38.140625 
Q 15.578125 34.671875 15.578125 28.328125 
L 15.578125 0 
L 6.78125 0 
L 6.78125 51.8125 
L 14.703125 51.8125 
L 14.703125 44.484375 
L 14.890625 44.484375 
Q 17.671875 48.734375 21.75 50.859375 
Q 25.828125 52.984375 31.203125 52.984375 
Q 35.296875 52.984375 39.296875 51.515625 
Q 43.3125 50.046875 45.578125 47.109375 
Q 47.859375 44.1875 48.4375 40.859375 
Q 49.03125 37.546875 49.03125 31.890625 
z
" id="ArialUnicodeMS-6e"/>
      <path d="M 15.484375 0 
L 6.6875 0 
L 6.6875 51.8125 
L 15.484375 51.8125 
z
M 15.484375 61.625 
L 6.6875 61.625 
L 6.6875 71.578125 
L 15.484375 71.578125 
z
" id="ArialUnicodeMS-69"/>
     </defs>
     <g transform="translate(179.4 55.389375)scale(0.12 -0.12)">
      <use xlink:href="#ArialUnicodeMS-74"/>
      <use x="27.783203125" xlink:href="#ArialUnicodeMS-72"/>
      <use x="61.083984375" xlink:href="#ArialUnicodeMS-61"/>
      <use x="116.69921875" xlink:href="#ArialUnicodeMS-69"/>
      <use x="138.916015625" xlink:href="#ArialUnicodeMS-6e"/>
     </g>
    </g>
    <g id="line2d_50">
     <path d="M 149.4 68.169375 
L 166.2 68.169375 
" style="fill:none;stroke:#f57c00;stroke-linecap:square;"/>
    </g>
    <g id="line2d_51"/>
    <g id="text_21">
     <!-- dev -->
     <defs>
      <path d="M 48.578125 0 
L 40.375 0 
L 40.375 6.59375 
L 40.1875 6.59375 
Q 35.453125 -1.21875 25.875 -1.21875 
Q 16.359375 -1.21875 9.984375 6.328125 
Q 3.609375 13.875 3.609375 25.875 
Q 3.609375 38.421875 9.609375 45.703125 
Q 15.625 52.984375 25.484375 52.984375 
Q 34.765625 52.984375 39.59375 45.90625 
L 39.796875 45.90625 
L 39.796875 71.578125 
L 48.578125 71.578125 
z
M 26.8125 6 
Q 32.5625 6 36.5625 10.734375 
Q 40.578125 15.484375 40.578125 25.09375 
Q 40.578125 34.578125 36.90625 40.1875 
Q 33.25 45.796875 26.421875 45.796875 
Q 19.578125 45.796875 16.078125 40.296875 
Q 12.59375 34.8125 12.59375 25.875 
Q 12.59375 19.4375 14.46875 14.96875 
Q 16.359375 10.5 19.71875 8.25 
Q 23.09375 6 26.8125 6 
" id="ArialUnicodeMS-64"/>
      <path d="M 48.78125 51.8125 
L 29.203125 0 
L 21 0 
L 1.3125 51.8125 
L 10.59375 51.8125 
L 21.296875 21.828125 
Q 24.3125 13.328125 24.90625 10.296875 
L 25.09375 10.296875 
Q 25.875 13.421875 27.78125 18.703125 
L 39.796875 51.8125 
z
" id="ArialUnicodeMS-76"/>
     </defs>
     <g transform="translate(179.4 72.369375)scale(0.12 -0.12)">
      <use xlink:href="#ArialUnicodeMS-64"/>
      <use x="55.615234375" xlink:href="#ArialUnicodeMS-65"/>
      <use x="111.23046875" xlink:href="#ArialUnicodeMS-76"/>
     </g>
    </g>
   </g>
  </g>
  <g id="axes_2">
   <g id="patch_8">
    <path d="M 591.545455 315 
L 972 315 
L 972 36 
L 591.545455 36 
z
" style="fill:#e5e5e5;"/>
   </g>
   <g id="matplotlib.axis_3">
    <g id="xtick_8">
     <g id="line2d_52">
      <path clip-path="url(#p205cea9371)" d="M 639.102273 315 
L 639.102273 36 
" style="fill:none;stroke:#ffffff;stroke-linecap:square;stroke-width:0.5;"/>
     </g>
     <g id="line2d_53">
      <g>
       <use style="fill:#555555;stroke:#555555;stroke-width:0.5;" x="639.102272727" xlink:href="#mb855fdecb4" y="315.0"/>
      </g>
     </g>
     <g id="line2d_54">
      <g>
       <use style="fill:#555555;stroke:#555555;stroke-width:0.5;" x="639.102272727" xlink:href="#mb92c807a07" y="36.0"/>
      </g>
     </g>
     <g id="text_22">
      <!-- 2000 -->
      <g style="fill:#555555;" transform="translate(627.980397727 330.1578125)scale(0.1 -0.1)">
       <use xlink:href="#ArialUnicodeMS-32"/>
       <use x="55.615234375" xlink:href="#ArialUnicodeMS-30"/>
       <use x="111.23046875" xlink:href="#ArialUnicodeMS-30"/>
       <use x="166.845703125" xlink:href="#ArialUnicodeMS-30"/>
      </g>
     </g>
    </g>
    <g id="xtick_9">
     <g id="line2d_55">
      <path clip-path="url(#p205cea9371)" d="M 691.943182 315 
L 691.943182 36 
" style="fill:none;stroke:#ffffff;stroke-linecap:square;stroke-width:0.5;"/>
     </g>
     <g id="line2d_56">
      <g>
       <use style="fill:#555555;stroke:#555555;stroke-width:0.5;" x="691.943181818" xlink:href="#mb855fdecb4" y="315.0"/>
      </g>
     </g>
     <g id="line2d_57">
      <g>
       <use style="fill:#555555;stroke:#555555;stroke-width:0.5;" x="691.943181818" xlink:href="#mb92c807a07" y="36.0"/>
      </g>
     </g>
     <g id="text_23">
      <!-- 4000 -->
      <g style="fill:#555555;" transform="translate(680.821306818 330.1578125)scale(0.1 -0.1)">
       <use xlink:href="#ArialUnicodeMS-34"/>
       <use x="55.615234375" xlink:href="#ArialUnicodeMS-30"/>
       <use x="111.23046875" xlink:href="#ArialUnicodeMS-30"/>
       <use x="166.845703125" xlink:href="#ArialUnicodeMS-30"/>
      </g>
     </g>
    </g>
    <g id="xtick_10">
     <g id="line2d_58">
      <path clip-path="url(#p205cea9371)" d="M 744.784091 315 
L 744.784091 36 
" style="fill:none;stroke:#ffffff;stroke-linecap:square;stroke-width:0.5;"/>
     </g>
     <g id="line2d_59">
      <g>
       <use style="fill:#555555;stroke:#555555;stroke-width:0.5;" x="744.784090909" xlink:href="#mb855fdecb4" y="315.0"/>
      </g>
     </g>
     <g id="line2d_60">
      <g>
       <use style="fill:#555555;stroke:#555555;stroke-width:0.5;" x="744.784090909" xlink:href="#mb92c807a07" y="36.0"/>
      </g>
     </g>
     <g id="text_24">
      <!-- 6000 -->
      <g style="fill:#555555;" transform="translate(733.662215909 330.1578125)scale(0.1 -0.1)">
       <use xlink:href="#ArialUnicodeMS-36"/>
       <use x="55.615234375" xlink:href="#ArialUnicodeMS-30"/>
       <use x="111.23046875" xlink:href="#ArialUnicodeMS-30"/>
       <use x="166.845703125" xlink:href="#ArialUnicodeMS-30"/>
      </g>
     </g>
    </g>
    <g id="xtick_11">
     <g id="line2d_61">
      <path clip-path="url(#p205cea9371)" d="M 797.625 315 
L 797.625 36 
" style="fill:none;stroke:#ffffff;stroke-linecap:square;stroke-width:0.5;"/>
     </g>
     <g id="line2d_62">
      <g>
       <use style="fill:#555555;stroke:#555555;stroke-width:0.5;" x="797.625" xlink:href="#mb855fdecb4" y="315.0"/>
      </g>
     </g>
     <g id="line2d_63">
      <g>
       <use style="fill:#555555;stroke:#555555;stroke-width:0.5;" x="797.625" xlink:href="#mb92c807a07" y="36.0"/>
      </g>
     </g>
     <g id="text_25">
      <!-- 8000 -->
      <g style="fill:#555555;" transform="translate(786.503125 330.1578125)scale(0.1 -0.1)">
       <use xlink:href="#ArialUnicodeMS-38"/>
       <use x="55.615234375" xlink:href="#ArialUnicodeMS-30"/>
       <use x="111.23046875" xlink:href="#ArialUnicodeMS-30"/>
       <use x="166.845703125" xlink:href="#ArialUnicodeMS-30"/>
      </g>
     </g>
    </g>
    <g id="xtick_12">
     <g id="line2d_64">
      <path clip-path="url(#p205cea9371)" d="M 850.465909 315 
L 850.465909 36 
" style="fill:none;stroke:#ffffff;stroke-linecap:square;stroke-width:0.5;"/>
     </g>
     <g id="line2d_65">
      <g>
       <use style="fill:#555555;stroke:#555555;stroke-width:0.5;" x="850.465909091" xlink:href="#mb855fdecb4" y="315.0"/>
      </g>
     </g>
     <g id="line2d_66">
      <g>
       <use style="fill:#555555;stroke:#555555;stroke-width:0.5;" x="850.465909091" xlink:href="#mb92c807a07" y="36.0"/>
      </g>
     </g>
     <g id="text_26">
      <!-- 10000 -->
      <g style="fill:#555555;" transform="translate(836.563565341 330.1578125)scale(0.1 -0.1)">
       <use xlink:href="#ArialUnicodeMS-31"/>
       <use x="55.615234375" xlink:href="#ArialUnicodeMS-30"/>
       <use x="111.23046875" xlink:href="#ArialUnicodeMS-30"/>
       <use x="166.845703125" xlink:href="#ArialUnicodeMS-30"/>
       <use x="222.4609375" xlink:href="#ArialUnicodeMS-30"/>
      </g>
     </g>
    </g>
    <g id="xtick_13">
     <g id="line2d_67">
      <path clip-path="url(#p205cea9371)" d="M 903.306818 315 
L 903.306818 36 
" style="fill:none;stroke:#ffffff;stroke-linecap:square;stroke-width:0.5;"/>
     </g>
     <g id="line2d_68">
      <g>
       <use style="fill:#555555;stroke:#555555;stroke-width:0.5;" x="903.306818182" xlink:href="#mb855fdecb4" y="315.0"/>
      </g>
     </g>
     <g id="line2d_69">
      <g>
       <use style="fill:#555555;stroke:#555555;stroke-width:0.5;" x="903.306818182" xlink:href="#mb92c807a07" y="36.0"/>
      </g>
     </g>
     <g id="text_27">
      <!-- 12000 -->
      <g style="fill:#555555;" transform="translate(889.404474432 330.1578125)scale(0.1 -0.1)">
       <use xlink:href="#ArialUnicodeMS-31"/>
       <use x="55.615234375" xlink:href="#ArialUnicodeMS-32"/>
       <use x="111.23046875" xlink:href="#ArialUnicodeMS-30"/>
       <use x="166.845703125" xlink:href="#ArialUnicodeMS-30"/>
       <use x="222.4609375" xlink:href="#ArialUnicodeMS-30"/>
      </g>
     </g>
    </g>
    <g id="xtick_14">
     <g id="line2d_70">
      <path clip-path="url(#p205cea9371)" d="M 956.147727 315 
L 956.147727 36 
" style="fill:none;stroke:#ffffff;stroke-linecap:square;stroke-width:0.5;"/>
     </g>
     <g id="line2d_71">
      <g>
       <use style="fill:#555555;stroke:#555555;stroke-width:0.5;" x="956.147727273" xlink:href="#mb855fdecb4" y="315.0"/>
      </g>
     </g>
     <g id="line2d_72">
      <g>
       <use style="fill:#555555;stroke:#555555;stroke-width:0.5;" x="956.147727273" xlink:href="#mb92c807a07" y="36.0"/>
      </g>
     </g>
     <g id="text_28">
      <!-- 14000 -->
      <g style="fill:#555555;" transform="translate(942.245383523 330.1578125)scale(0.1 -0.1)">
       <use xlink:href="#ArialUnicodeMS-31"/>
       <use x="55.615234375" xlink:href="#ArialUnicodeMS-34"/>
       <use x="111.23046875" xlink:href="#ArialUnicodeMS-30"/>
       <use x="166.845703125" xlink:href="#ArialUnicodeMS-30"/>
       <use x="222.4609375" xlink:href="#ArialUnicodeMS-30"/>
      </g>
     </g>
    </g>
    <g id="text_29">
     <!-- Step -->
     <g style="fill:#555555;" transform="translate(769.430539773 345.885625)scale(0.12 -0.12)">
      <use xlink:href="#ArialUnicodeMS-53"/>
      <use x="66.69921875" xlink:href="#ArialUnicodeMS-74"/>
      <use x="94.482421875" xlink:href="#ArialUnicodeMS-65"/>
      <use x="150.09765625" xlink:href="#ArialUnicodeMS-70"/>
     </g>
    </g>
   </g>
   <g id="matplotlib.axis_4">
    <g id="ytick_10">
     <g id="line2d_73">
      <path clip-path="url(#p205cea9371)" d="M 591.545455 315 
L 972 315 
" style="fill:none;stroke:#ffffff;stroke-linecap:square;stroke-width:0.5;"/>
     </g>
     <g id="line2d_74">
      <g>
       <use style="fill:#555555;stroke:#555555;stroke-width:0.5;" x="591.545454545" xlink:href="#m7cb9521a14" y="315.0"/>
      </g>
     </g>
     <g id="line2d_75">
      <g>
       <use style="fill:#555555;stroke:#555555;stroke-width:0.5;" x="972.0" xlink:href="#mc877381208" y="315.0"/>
      </g>
     </g>
     <g id="text_30">
      <!-- 0.4 -->
      <g style="fill:#555555;" transform="translate(569.645454545 317.5828125)scale(0.1 -0.1)">
       <use xlink:href="#ArialUnicodeMS-30"/>
       <use x="55.615234375" xlink:href="#ArialUnicodeMS-2e"/>
       <use x="83.3984375" xlink:href="#ArialUnicodeMS-34"/>
      </g>
     </g>
    </g>
    <g id="ytick_11">
     <g id="line2d_76">
      <path clip-path="url(#p205cea9371)" d="M 591.545455 280.125 
L 972 280.125 
" style="fill:none;stroke:#ffffff;stroke-linecap:square;stroke-width:0.5;"/>
     </g>
     <g id="line2d_77">
      <g>
       <use style="fill:#555555;stroke:#555555;stroke-width:0.5;" x="591.545454545" xlink:href="#m7cb9521a14" y="280.125"/>
      </g>
     </g>
     <g id="line2d_78">
      <g>
       <use style="fill:#555555;stroke:#555555;stroke-width:0.5;" x="972.0" xlink:href="#mc877381208" y="280.125"/>
      </g>
     </g>
     <g id="text_31">
      <!-- 0.5 -->
      <defs>
       <path d="M 15.828125 43.015625 
Q 22.359375 47.515625 29.390625 47.515625 
Q 38.328125 47.515625 44.96875 41.1875 
Q 51.609375 34.859375 51.609375 24.3125 
Q 51.609375 13.671875 44.875 6.21875 
Q 38.140625 -1.21875 27.203125 -1.21875 
Q 18.265625 -1.21875 11.71875 3.828125 
Q 5.171875 8.890625 4.203125 18.796875 
L 13.375 19.484375 
Q 14.5 12.703125 18.15625 9.34375 
Q 21.828125 6 27.203125 6 
Q 33.890625 6 38.03125 11.046875 
Q 42.1875 16.109375 42.1875 23.484375 
Q 42.1875 31 37.9375 35.34375 
Q 33.6875 39.703125 27 39.703125 
Q 18.5625 39.703125 14.015625 32.8125 
L 5.71875 33.796875 
L 12.703125 70.609375 
L 48.1875 70.609375 
L 48.1875 62.109375 
L 19.671875 62.109375 
z
" id="ArialUnicodeMS-35"/>
      </defs>
      <g style="fill:#555555;" transform="translate(569.645454545 282.7078125)scale(0.1 -0.1)">
       <use xlink:href="#ArialUnicodeMS-30"/>
       <use x="55.615234375" xlink:href="#ArialUnicodeMS-2e"/>
       <use x="83.3984375" xlink:href="#ArialUnicodeMS-35"/>
      </g>
     </g>
    </g>
    <g id="ytick_12">
     <g id="line2d_79">
      <path clip-path="url(#p205cea9371)" d="M 591.545455 245.25 
L 972 245.25 
" style="fill:none;stroke:#ffffff;stroke-linecap:square;stroke-width:0.5;"/>
     </g>
     <g id="line2d_80">
      <g>
       <use style="fill:#555555;stroke:#555555;stroke-width:0.5;" x="591.545454545" xlink:href="#m7cb9521a14" y="245.25"/>
      </g>
     </g>
     <g id="line2d_81">
      <g>
       <use style="fill:#555555;stroke:#555555;stroke-width:0.5;" x="972.0" xlink:href="#mc877381208" y="245.25"/>
      </g>
     </g>
     <g id="text_32">
      <!-- 0.6 -->
      <g style="fill:#555555;" transform="translate(569.645454545 247.8328125)scale(0.1 -0.1)">
       <use xlink:href="#ArialUnicodeMS-30"/>
       <use x="55.615234375" xlink:href="#ArialUnicodeMS-2e"/>
       <use x="83.3984375" xlink:href="#ArialUnicodeMS-36"/>
      </g>
     </g>
    </g>
    <g id="ytick_13">
     <g id="line2d_82">
      <path clip-path="url(#p205cea9371)" d="M 591.545455 210.375 
L 972 210.375 
" style="fill:none;stroke:#ffffff;stroke-linecap:square;stroke-width:0.5;"/>
     </g>
     <g id="line2d_83">
      <g>
       <use style="fill:#555555;stroke:#555555;stroke-width:0.5;" x="591.545454545" xlink:href="#m7cb9521a14" y="210.375"/>
      </g>
     </g>
     <g id="line2d_84">
      <g>
       <use style="fill:#555555;stroke:#555555;stroke-width:0.5;" x="972.0" xlink:href="#mc877381208" y="210.375"/>
      </g>
     </g>
     <g id="text_33">
      <!-- 0.7 -->
      <g style="fill:#555555;" transform="translate(569.645454545 212.9578125)scale(0.1 -0.1)">
       <use xlink:href="#ArialUnicodeMS-30"/>
       <use x="55.615234375" xlink:href="#ArialUnicodeMS-2e"/>
       <use x="83.3984375" xlink:href="#ArialUnicodeMS-37"/>
      </g>
     </g>
    </g>
    <g id="ytick_14">
     <g id="line2d_85">
      <path clip-path="url(#p205cea9371)" d="M 591.545455 175.5 
L 972 175.5 
" style="fill:none;stroke:#ffffff;stroke-linecap:square;stroke-width:0.5;"/>
     </g>
     <g id="line2d_86">
      <g>
       <use style="fill:#555555;stroke:#555555;stroke-width:0.5;" x="591.545454545" xlink:href="#m7cb9521a14" y="175.5"/>
      </g>
     </g>
     <g id="line2d_87">
      <g>
       <use style="fill:#555555;stroke:#555555;stroke-width:0.5;" x="972.0" xlink:href="#mc877381208" y="175.5"/>
      </g>
     </g>
     <g id="text_34">
      <!-- 0.8 -->
      <g style="fill:#555555;" transform="translate(569.645454545 178.0828125)scale(0.1 -0.1)">
       <use xlink:href="#ArialUnicodeMS-30"/>
       <use x="55.615234375" xlink:href="#ArialUnicodeMS-2e"/>
       <use x="83.3984375" xlink:href="#ArialUnicodeMS-38"/>
      </g>
     </g>
    </g>
    <g id="ytick_15">
     <g id="line2d_88">
      <path clip-path="url(#p205cea9371)" d="M 591.545455 140.625 
L 972 140.625 
" style="fill:none;stroke:#ffffff;stroke-linecap:square;stroke-width:0.5;"/>
     </g>
     <g id="line2d_89">
      <g>
       <use style="fill:#555555;stroke:#555555;stroke-width:0.5;" x="591.545454545" xlink:href="#m7cb9521a14" y="140.625"/>
      </g>
     </g>
     <g id="line2d_90">
      <g>
       <use style="fill:#555555;stroke:#555555;stroke-width:0.5;" x="972.0" xlink:href="#mc877381208" y="140.625"/>
      </g>
     </g>
     <g id="text_35">
      <!-- 0.9 -->
      <defs>
       <path d="M 42.390625 33.6875 
Q 39.796875 29.5 35.28125 26.90625 
Q 30.765625 24.3125 25.484375 24.3125 
Q 16.65625 24.3125 10.46875 30.78125 
Q 4.296875 37.25 4.296875 47.703125 
Q 4.296875 58.34375 10.59375 65.125 
Q 16.890625 71.921875 26.8125 71.921875 
Q 36.765625 71.921875 44.03125 64.15625 
Q 51.3125 56.390625 51.3125 37.3125 
Q 51.3125 17.921875 44.671875 8.34375 
Q 38.03125 -1.21875 25.6875 -1.21875 
Q 17.625 -1.21875 12.203125 3.203125 
Q 6.78125 7.625 5.609375 16.609375 
L 14.015625 17.28125 
Q 16.015625 6 25.875 6 
Q 33.984375 6 38.28125 13.390625 
Q 42.578125 20.796875 42.578125 33.6875 
z
M 27.59375 31.984375 
Q 34.03125 31.984375 37.8125 36.546875 
Q 41.609375 41.109375 41.609375 48.09375 
Q 41.609375 55.171875 37.71875 59.9375 
Q 33.84375 64.703125 27.78125 64.703125 
Q 21.6875 64.703125 17.484375 59.640625 
Q 13.28125 54.59375 13.28125 47.40625 
Q 13.28125 40.625 17.40625 36.296875 
Q 21.53125 31.984375 27.59375 31.984375 
" id="ArialUnicodeMS-39"/>
      </defs>
      <g style="fill:#555555;" transform="translate(569.645454545 143.2078125)scale(0.1 -0.1)">
       <use xlink:href="#ArialUnicodeMS-30"/>
       <use x="55.615234375" xlink:href="#ArialUnicodeMS-2e"/>
       <use x="83.3984375" xlink:href="#ArialUnicodeMS-39"/>
      </g>
     </g>
    </g>
    <g id="ytick_16">
     <g id="line2d_91">
      <path clip-path="url(#p205cea9371)" d="M 591.545455 105.75 
L 972 105.75 
" style="fill:none;stroke:#ffffff;stroke-linecap:square;stroke-width:0.5;"/>
     </g>
     <g id="line2d_92">
      <g>
       <use style="fill:#555555;stroke:#555555;stroke-width:0.5;" x="591.545454545" xlink:href="#m7cb9521a14" y="105.75"/>
      </g>
     </g>
     <g id="line2d_93">
      <g>
       <use style="fill:#555555;stroke:#555555;stroke-width:0.5;" x="972.0" xlink:href="#mc877381208" y="105.75"/>
      </g>
     </g>
     <g id="text_36">
      <!-- 1.0 -->
      <g style="fill:#555555;" transform="translate(569.645454545 108.3328125)scale(0.1 -0.1)">
       <use xlink:href="#ArialUnicodeMS-31"/>
       <use x="55.615234375" xlink:href="#ArialUnicodeMS-2e"/>
       <use x="83.3984375" xlink:href="#ArialUnicodeMS-30"/>
      </g>
     </g>
    </g>
    <g id="ytick_17">
     <g id="line2d_94">
      <path clip-path="url(#p205cea9371)" d="M 591.545455 70.875 
L 972 70.875 
" style="fill:none;stroke:#ffffff;stroke-linecap:square;stroke-width:0.5;"/>
     </g>
     <g id="line2d_95">
      <g>
       <use style="fill:#555555;stroke:#555555;stroke-width:0.5;" x="591.545454545" xlink:href="#m7cb9521a14" y="70.875"/>
      </g>
     </g>
     <g id="line2d_96">
      <g>
       <use style="fill:#555555;stroke:#555555;stroke-width:0.5;" x="972.0" xlink:href="#mc877381208" y="70.875"/>
      </g>
     </g>
     <g id="text_37">
      <!-- 1.1 -->
      <g style="fill:#555555;" transform="translate(569.645454545 73.4578125)scale(0.1 -0.1)">
       <use xlink:href="#ArialUnicodeMS-31"/>
       <use x="55.615234375" xlink:href="#ArialUnicodeMS-2e"/>
       <use x="83.3984375" xlink:href="#ArialUnicodeMS-31"/>
      </g>
     </g>
    </g>
    <g id="ytick_18">
     <g id="line2d_97">
      <path clip-path="url(#p205cea9371)" d="M 591.545455 36 
L 972 36 
" style="fill:none;stroke:#ffffff;stroke-linecap:square;stroke-width:0.5;"/>
     </g>
     <g id="line2d_98">
      <g>
       <use style="fill:#555555;stroke:#555555;stroke-width:0.5;" x="591.545454545" xlink:href="#m7cb9521a14" y="36.0"/>
      </g>
     </g>
     <g id="line2d_99">
      <g>
       <use style="fill:#555555;stroke:#555555;stroke-width:0.5;" x="972.0" xlink:href="#mc877381208" y="36.0"/>
      </g>
     </g>
     <g id="text_38">
      <!-- 1.2 -->
      <g style="fill:#555555;" transform="translate(569.645454545 38.5828125)scale(0.1 -0.1)">
       <use xlink:href="#ArialUnicodeMS-31"/>
       <use x="55.615234375" xlink:href="#ArialUnicodeMS-2e"/>
       <use x="83.3984375" xlink:href="#ArialUnicodeMS-32"/>
      </g>
     </g>
    </g>
    <g id="text_39">
     <!-- Loss -->
     <defs>
      <path d="M 35.59375 37.3125 
Q 35.015625 41.546875 32.15625 43.671875 
Q 29.296875 45.796875 24.21875 45.796875 
Q 19.1875 45.796875 16.078125 44.09375 
Q 12.984375 42.390625 12.984375 39.109375 
Q 12.984375 36.03125 15.453125 34.71875 
Q 17.921875 33.40625 25.203125 31.5 
Q 33.40625 29.390625 37.46875 27.78125 
Q 41.546875 26.171875 43.8125 23.265625 
Q 46.09375 20.359375 46.09375 15.1875 
Q 46.09375 8.25 40.421875 3.515625 
Q 34.765625 -1.21875 25.296875 -1.21875 
Q 15.4375 -1.21875 9.890625 2.953125 
Q 4.34375 7.125 3.078125 15.484375 
L 11.8125 16.796875 
Q 12.5 11.375 15.84375 8.6875 
Q 19.1875 6 25.203125 6 
Q 30.953125 6 34.03125 8.421875 
Q 37.109375 10.84375 37.109375 14.3125 
Q 37.109375 16.65625 35.6875 18.0625 
Q 34.28125 19.484375 32.15625 20.1875 
Q 30.03125 20.90625 22.609375 22.703125 
Q 11.578125 25.34375 8.03125 29.09375 
Q 4.5 32.859375 4.5 38.09375 
Q 4.5 44.578125 9.671875 48.78125 
Q 14.84375 52.984375 23.578125 52.984375 
Q 32.859375 52.984375 38.015625 49.34375 
Q 43.171875 45.703125 44.1875 38.484375 
z
" id="ArialUnicodeMS-73"/>
      <path d="M 27.78125 52.984375 
Q 38.28125 52.984375 45.1875 46.140625 
Q 52.09375 39.3125 52.09375 26.703125 
Q 52.09375 11.421875 44.625 5.09375 
Q 37.15625 -1.21875 27.78125 -1.21875 
Q 17.96875 -1.21875 10.734375 5.265625 
Q 3.515625 11.765625 3.515625 25.875 
Q 3.515625 39.546875 10.5 46.265625 
Q 17.484375 52.984375 27.78125 52.984375 
M 27.78125 6 
Q 35.296875 6 39.203125 11.5625 
Q 43.109375 17.140625 43.109375 26.21875 
Q 43.109375 35.9375 38.6875 40.859375 
Q 34.28125 45.796875 27.78125 45.796875 
Q 21.09375 45.796875 16.796875 40.796875 
Q 12.5 35.796875 12.5 25.875 
Q 12.5 16.015625 16.859375 11 
Q 21.234375 6 27.78125 6 
" id="ArialUnicodeMS-6f"/>
      <path d="M 52.296875 0 
L 7.515625 0 
L 7.515625 71.578125 
L 17 71.578125 
L 17 8.5 
L 52.296875 8.5 
z
" id="ArialUnicodeMS-4c"/>
     </defs>
     <g style="fill:#555555;" transform="translate(562.254829545 188.173125)rotate(-90.0)scale(0.12 -0.12)">
      <use xlink:href="#ArialUnicodeMS-4c"/>
      <use x="55.615234375" xlink:href="#ArialUnicodeMS-6f"/>
      <use x="111.23046875" xlink:href="#ArialUnicodeMS-73"/>
      <use x="161.23046875" xlink:href="#ArialUnicodeMS-73"/>
     </g>
    </g>
   </g>
   <g id="line2d_100">
    <path clip-path="url(#p205cea9371)" d="M 591.545455 106.126588 
L 596.829545 109.953275 
L 602.113636 177.441877 
L 607.397727 106.44898 
L 623.25 145.725426 
L 628.534091 172.340818 
L 633.818182 162.035097 
L 639.102273 170.971342 
L 644.386364 194.566136 
L 649.670455 163.362642 
L 665.522727 155.227881 
L 670.806818 144.781849 
L 676.090909 167.926607 
L 681.375 202.907161 
L 686.659091 205.495323 
L 691.943182 214.851229 
L 702.511364 180.935979 
L 713.079545 202.373532 
L 718.363636 215.900692 
L 723.647727 199.008222 
L 728.931818 199.609703 
L 734.215909 226.710058 
L 739.5 185.14161 
L 744.784091 182.405246 
L 755.352273 182.163864 
L 760.636364 220.80699 
L 765.920455 231.035948 
L 776.488636 255.071067 
L 781.772727 242.650701 
L 792.340909 256.463662 
L 797.625 246.741977 
L 802.909091 241.509309 
L 813.477273 252.153127 
L 824.045455 256.480849 
L 829.329545 254.938907 
L 839.897727 256.509671 
L 845.181818 258.159684 
L 876.886364 266.594502 
L 882.170455 268.596972 
L 887.454545 259.69916 
L 892.738636 276.624387 
L 913.875 274.047519 
L 924.443182 274.04864 
L 940.295455 285.281633 
L 945.579545 293.863321 
L 961.431818 297.824219 
L 966.715909 288.212928 
L 972 307.499697 
" style="fill:none;stroke:#00acc1;stroke-linecap:square;"/>
   </g>
   <g id="line2d_101">
    <path clip-path="url(#p205cea9371)" d="M 593.976136 259.636155 
L 601.690909 220.692151 
L 609.405682 214.232907 
L 617.120455 204.772231 
L 624.835227 219.051881 
L 632.55 226.912135 
L 640.264773 204.276354 
L 647.979545 201.090333 
L 655.694318 175.407556 
L 663.409091 167.273909 
L 671.123864 194.581345 
L 678.838636 223.325796 
L 686.553409 211.474705 
L 694.268182 201.543014 
L 701.982955 193.88321 
L 709.697727 53.80095 
L 717.4125 131.548333 
L 725.127273 149.902445 
L 732.842045 136.220425 
L 740.556818 94.115491 
L 748.271591 179.417453 
L 755.986364 112.945503 
L 763.701136 192.721085 
L 771.415909 172.702777 
L 779.130682 139.319598 
L 786.845455 182.92555 
L 794.560227 111.20375 
L 802.275 154.212655 
L 809.989773 172.033723 
L 817.704545 181.86418 
L 825.419318 173.790546 
L 833.134091 122.42048 
L 840.848864 117.85249 
L 848.563636 134.766574 
L 856.278409 176.669209 
L 863.993182 189.679763 
L 871.707955 191.625854 
L 879.422727 188.627997 
L 887.1375 186.239911 
L 894.852273 103.71993 
L 902.567045 136.1384 
L 910.281818 134.871653 
L 917.996591 133.950742 
L 925.711364 149.142739 
L 933.426136 137.288426 
L 941.140909 82.669437 
L 948.855682 90.433135 
L 956.570455 86.589431 
L 964.285227 97.048512 
L 972 90.862265 
" style="fill:none;stroke:#f57c00;stroke-linecap:square;"/>
   </g>
   <g id="patch_9">
    <path d="M 591.545455 36 
L 972 36 
" style="fill:none;stroke:#ffffff;stroke-linecap:square;stroke-linejoin:miter;"/>
   </g>
   <g id="patch_10">
    <path d="M 972 315 
L 972 36 
" style="fill:none;stroke:#ffffff;stroke-linecap:square;stroke-linejoin:miter;"/>
   </g>
   <g id="patch_11">
    <path d="M 591.545455 315 
L 972 315 
" style="fill:none;stroke:#ffffff;stroke-linecap:square;stroke-linejoin:miter;"/>
   </g>
   <g id="patch_12">
    <path d="M 591.545455 315 
L 591.545455 36 
" style="fill:none;stroke:#ffffff;stroke-linecap:square;stroke-linejoin:miter;"/>
   </g>
   <g id="text_40">
    <!-- Loss -->
    <g transform="translate(766.564977273 31.0)scale(0.144 -0.144)">
     <use xlink:href="#ArialUnicodeMS-4c"/>
     <use x="55.615234375" xlink:href="#ArialUnicodeMS-6f"/>
     <use x="111.23046875" xlink:href="#ArialUnicodeMS-73"/>
     <use x="161.23046875" xlink:href="#ArialUnicodeMS-73"/>
    </g>
   </g>
   <g id="legend_2">
    <g id="patch_13">
     <path d="M 899.458125 79.56 
L 966 79.56 
L 966 42 
L 899.458125 42 
z
" style="fill:#e5e5e5;stroke:#ffffff;stroke-linejoin:miter;stroke-width:0.5;"/>
    </g>
    <g id="line2d_102">
     <path d="M 907.858125 51.189375 
L 924.658125 51.189375 
" style="fill:none;stroke:#00acc1;stroke-linecap:square;"/>
    </g>
    <g id="line2d_103"/>
    <g id="text_41">
     <!-- train -->
     <g transform="translate(937.858125 55.389375)scale(0.12 -0.12)">
      <use xlink:href="#ArialUnicodeMS-74"/>
      <use x="27.783203125" xlink:href="#ArialUnicodeMS-72"/>
      <use x="61.083984375" xlink:href="#ArialUnicodeMS-61"/>
      <use x="116.69921875" xlink:href="#ArialUnicodeMS-69"/>
      <use x="138.916015625" xlink:href="#ArialUnicodeMS-6e"/>
     </g>
    </g>
    <g id="line2d_104">
     <path d="M 907.858125 68.169375 
L 924.658125 68.169375 
" style="fill:none;stroke:#f57c00;stroke-linecap:square;"/>
    </g>
    <g id="line2d_105"/>
    <g id="text_42">
     <!-- dev -->
     <g transform="translate(937.858125 72.369375)scale(0.12 -0.12)">
      <use xlink:href="#ArialUnicodeMS-64"/>
      <use x="55.615234375" xlink:href="#ArialUnicodeMS-65"/>
      <use x="111.23046875" xlink:href="#ArialUnicodeMS-76"/>
     </g>
    </g>
   </g>
  </g>
 </g>
 <defs>
  <clipPath id="paba06e5142">
   <rect height="279.0" width="380.454545455" x="135.0" y="36.0"/>
  </clipPath>
  <clipPath id="p205cea9371">
   <rect height="279.0" width="380.454545455" x="591.545454545" y="36.0"/>
  </clipPath>
 </defs>
</svg>
