<?xml version="1.0" encoding="utf-8" standalone="no"?>
<!DOCTYPE svg PUBLIC "-//W3C//DTD SVG 1.1//EN"
  "http://www.w3.org/Graphics/SVG/1.1/DTD/svg11.dtd">
<!-- Created with matplotlib (http://matplotlib.org/) -->
<svg height="333pt" version="1.1" viewBox="0 0 896 333" width="896pt" xmlns="http://www.w3.org/2000/svg" xmlns:xlink="http://www.w3.org/1999/xlink">
 <defs>
  <style type="text/css">
*{stroke-linecap:butt;stroke-linejoin:round;}
  </style>
 </defs>
 <g id="figure_1">
  <g id="patch_1">
   <path d="M 0 333.63725 
L 896.470312 333.63725 
L 896.470312 0 
L 0 0 
z
" style="fill:#ffffff;"/>
  </g>
  <g id="axes_1">
   <g id="patch_2">
    <path d="M 48.770313 295.30725 
L 429.224858 295.30725 
L 429.224858 23.50725 
L 48.770313 23.50725 
z
" style="fill:#e5e5e5;"/>
   </g>
   <g id="matplotlib.axis_1">
    <g id="xtick_1">
     <g id="line2d_1">
      <path clip-path="url(#p2cfe761ef0)" d="M 56.086746 295.30725 
L 56.086746 23.50725 
" style="fill:none;stroke:#ffffff;stroke-linecap:square;stroke-width:0.8;"/>
     </g>
     <g id="line2d_2">
      <defs>
       <path d="M 0 0 
L 0 3.5 
" id="md440d14c75" style="stroke:#555555;stroke-width:0.8;"/>
      </defs>
      <g>
       <use style="fill:#555555;stroke:#555555;stroke-width:0.8;" x="56.086746" xlink:href="#md440d14c75" y="295.30725"/>
      </g>
     </g>
     <g id="text_1">
      <!-- 0 -->
      <defs>
       <path d="M 27.78125 71.921875 
Q 51.125 71.921875 51.125 35.296875 
Q 51.125 16.796875 45.09375 7.78125 
Q 39.0625 -1.21875 27.78125 -1.21875 
Q 4.5 -1.21875 4.5 35.296875 
Q 4.5 53.8125 10.515625 62.859375 
Q 16.546875 71.921875 27.78125 71.921875 
M 27.78125 6 
Q 34.859375 6 38.46875 12.859375 
Q 42.09375 19.734375 42.09375 35.296875 
Q 42.09375 46.140625 40.5 52.359375 
Q 38.921875 58.59375 35.71875 61.640625 
Q 32.515625 64.703125 27.6875 64.703125 
Q 20.609375 64.703125 17.046875 57.71875 
Q 13.484375 50.734375 13.484375 35.296875 
Q 13.484375 24.609375 15.09375 18.359375 
Q 16.703125 12.109375 19.875 9.046875 
Q 23.046875 6 27.78125 6 
" id="ArialUnicodeMS-30"/>
      </defs>
      <g style="fill:#555555;" transform="translate(53.306277 309.465062)scale(0.1 -0.1)">
       <use xlink:href="#ArialUnicodeMS-30"/>
      </g>
     </g>
    </g>
    <g id="xtick_2">
     <g id="line2d_3">
      <path clip-path="url(#p2cfe761ef0)" d="M 129.251082 295.30725 
L 129.251082 23.50725 
" style="fill:none;stroke:#ffffff;stroke-linecap:square;stroke-width:0.8;"/>
     </g>
     <g id="line2d_4">
      <g>
       <use style="fill:#555555;stroke:#555555;stroke-width:0.8;" x="129.251082" xlink:href="#md440d14c75" y="295.30725"/>
      </g>
     </g>
     <g id="text_2">
      <!-- 10 -->
      <defs>
       <path d="M 37.5 0 
L 28.71875 0 
L 28.71875 56 
Q 22.125 49.75 11.078125 45.40625 
L 11.078125 53.90625 
Q 26.265625 61.1875 31.78125 71.921875 
L 37.5 71.921875 
z
" id="ArialUnicodeMS-31"/>
      </defs>
      <g style="fill:#555555;" transform="translate(123.690144 309.465062)scale(0.1 -0.1)">
       <use xlink:href="#ArialUnicodeMS-31"/>
       <use x="55.615234" xlink:href="#ArialUnicodeMS-30"/>
      </g>
     </g>
    </g>
    <g id="xtick_3">
     <g id="line2d_5">
      <path clip-path="url(#p2cfe761ef0)" d="M 202.415417 295.30725 
L 202.415417 23.50725 
" style="fill:none;stroke:#ffffff;stroke-linecap:square;stroke-width:0.8;"/>
     </g>
     <g id="line2d_6">
      <g>
       <use style="fill:#555555;stroke:#555555;stroke-width:0.8;" x="202.415417" xlink:href="#md440d14c75" y="295.30725"/>
      </g>
     </g>
     <g id="text_3">
      <!-- 20 -->
      <defs>
       <path d="M 50.484375 0 
L 3.078125 0 
Q 3.078125 6.0625 7.296875 12.25 
Q 11.53125 18.453125 23.09375 27.78125 
Q 30.171875 33.453125 35.734375 39.671875 
Q 41.3125 45.90625 41.3125 52.203125 
Q 41.3125 57.625 37.46875 61.15625 
Q 33.640625 64.703125 27.78125 64.703125 
Q 21.875 64.703125 17.875 61.0625 
Q 13.875 57.421875 13.8125 50.203125 
L 4.78125 51.21875 
Q 5.609375 61.28125 11.9375 66.59375 
Q 18.265625 71.921875 27.984375 71.921875 
Q 38.53125 71.921875 44.40625 66.078125 
Q 50.296875 60.25 50.296875 52 
Q 50.296875 45.125 45.328125 38.0625 
Q 40.375 31 25.59375 19.1875 
Q 17.828125 12.984375 15.28125 8.5 
L 50.484375 8.5 
z
" id="ArialUnicodeMS-32"/>
      </defs>
      <g style="fill:#555555;" transform="translate(196.85448 309.465062)scale(0.1 -0.1)">
       <use xlink:href="#ArialUnicodeMS-32"/>
       <use x="55.615234" xlink:href="#ArialUnicodeMS-30"/>
      </g>
     </g>
    </g>
    <g id="xtick_4">
     <g id="line2d_7">
      <path clip-path="url(#p2cfe761ef0)" d="M 275.579753 295.30725 
L 275.579753 23.50725 
" style="fill:none;stroke:#ffffff;stroke-linecap:square;stroke-width:0.8;"/>
     </g>
     <g id="line2d_8">
      <g>
       <use style="fill:#555555;stroke:#555555;stroke-width:0.8;" x="275.579753" xlink:href="#md440d14c75" y="295.30725"/>
      </g>
     </g>
     <g id="text_4">
      <!-- 30 -->
      <defs>
       <path d="M 37.890625 38.71875 
Q 44.53125 37.453125 47.921875 32.296875 
Q 51.3125 27.15625 51.3125 21.09375 
Q 51.3125 11.328125 44.203125 5.046875 
Q 37.109375 -1.21875 27.203125 -1.21875 
Q 17.71875 -1.21875 11.5625 4.296875 
Q 5.421875 9.8125 4.390625 18.890625 
L 13.1875 20.125 
Q 14.5 13.03125 17.984375 9.515625 
Q 21.484375 6 27.203125 6 
Q 33.34375 6 37.609375 10.328125 
Q 41.890625 14.65625 41.890625 20.90625 
Q 41.890625 26.90625 38 30.859375 
Q 34.125 34.8125 27.875 34.8125 
Q 25.34375 34.8125 21.6875 33.890625 
L 22.703125 41.609375 
Q 26.21875 41.609375 28.265625 41.9375 
Q 30.328125 42.28125 32.859375 43.59375 
Q 35.40625 44.921875 37.0625 47.390625 
Q 38.71875 49.859375 38.71875 53.515625 
Q 38.71875 58.84375 35.171875 61.765625 
Q 31.640625 64.703125 27 64.703125 
Q 21.6875 64.703125 18.328125 61.328125 
Q 14.984375 57.953125 14.109375 51.703125 
L 5.328125 53.328125 
Q 7.03125 62.640625 12.859375 67.28125 
Q 18.703125 71.921875 26.8125 71.921875 
Q 35.75 71.921875 41.71875 66.53125 
Q 47.703125 61.140625 47.703125 53.328125 
Q 47.703125 43.3125 37.890625 38.921875 
z
" id="ArialUnicodeMS-33"/>
      </defs>
      <g style="fill:#555555;" transform="translate(270.018816 309.465062)scale(0.1 -0.1)">
       <use xlink:href="#ArialUnicodeMS-33"/>
       <use x="55.615234" xlink:href="#ArialUnicodeMS-30"/>
      </g>
     </g>
    </g>
    <g id="xtick_5">
     <g id="line2d_9">
      <path clip-path="url(#p2cfe761ef0)" d="M 348.744089 295.30725 
L 348.744089 23.50725 
" style="fill:none;stroke:#ffffff;stroke-linecap:square;stroke-width:0.8;"/>
     </g>
     <g id="line2d_10">
      <g>
       <use style="fill:#555555;stroke:#555555;stroke-width:0.8;" x="348.744089" xlink:href="#md440d14c75" y="295.30725"/>
      </g>
     </g>
     <g id="text_5">
      <!-- 40 -->
      <defs>
       <path d="M 50.984375 17.09375 
L 41.3125 17.09375 
L 41.3125 0 
L 32.515625 0 
L 32.515625 17.09375 
L 1.515625 17.09375 
L 1.515625 25.203125 
L 34.078125 71.578125 
L 41.3125 71.578125 
L 41.3125 25.203125 
L 50.984375 25.203125 
z
M 32.515625 25.203125 
L 32.515625 57.515625 
L 32.328125 57.515625 
L 10.109375 25.203125 
z
" id="ArialUnicodeMS-34"/>
      </defs>
      <g style="fill:#555555;" transform="translate(343.183151 309.465062)scale(0.1 -0.1)">
       <use xlink:href="#ArialUnicodeMS-34"/>
       <use x="55.615234" xlink:href="#ArialUnicodeMS-30"/>
      </g>
     </g>
    </g>
    <g id="xtick_6">
     <g id="line2d_11">
      <path clip-path="url(#p2cfe761ef0)" d="M 421.908424 295.30725 
L 421.908424 23.50725 
" style="fill:none;stroke:#ffffff;stroke-linecap:square;stroke-width:0.8;"/>
     </g>
     <g id="line2d_12">
      <g>
       <use style="fill:#555555;stroke:#555555;stroke-width:0.8;" x="421.908424" xlink:href="#md440d14c75" y="295.30725"/>
      </g>
     </g>
     <g id="text_6">
      <!-- 50 -->
      <defs>
       <path d="M 15.828125 43.015625 
Q 22.359375 47.515625 29.390625 47.515625 
Q 38.328125 47.515625 44.96875 41.1875 
Q 51.609375 34.859375 51.609375 24.3125 
Q 51.609375 13.671875 44.875 6.21875 
Q 38.140625 -1.21875 27.203125 -1.21875 
Q 18.265625 -1.21875 11.71875 3.828125 
Q 5.171875 8.890625 4.203125 18.796875 
L 13.375 19.484375 
Q 14.5 12.703125 18.15625 9.34375 
Q 21.828125 6 27.203125 6 
Q 33.890625 6 38.03125 11.046875 
Q 42.1875 16.109375 42.1875 23.484375 
Q 42.1875 31 37.9375 35.34375 
Q 33.6875 39.703125 27 39.703125 
Q 18.5625 39.703125 14.015625 32.8125 
L 5.71875 33.796875 
L 12.703125 70.609375 
L 48.1875 70.609375 
L 48.1875 62.109375 
L 19.671875 62.109375 
z
" id="ArialUnicodeMS-35"/>
      </defs>
      <g style="fill:#555555;" transform="translate(416.347487 309.465062)scale(0.1 -0.1)">
       <use xlink:href="#ArialUnicodeMS-35"/>
       <use x="55.615234" xlink:href="#ArialUnicodeMS-30"/>
      </g>
     </g>
    </g>
    <g id="text_7">
     <!-- Epoch -->
     <defs>
      <path d="M 61.375 0 
L 7.90625 0 
L 7.90625 71.578125 
L 59.71875 71.578125 
L 59.71875 63.09375 
L 17.390625 63.09375 
L 17.390625 41.21875 
L 56.984375 41.21875 
L 56.984375 32.71875 
L 17.390625 32.71875 
L 17.390625 8.5 
L 61.375 8.5 
z
" id="ArialUnicodeMS-45"/>
      <path d="M 14.984375 45.125 
Q 19.921875 52.984375 29.78125 52.984375 
Q 39.984375 52.984375 45.890625 45.578125 
Q 51.8125 38.1875 51.8125 26.3125 
Q 51.8125 13.671875 45.265625 6.21875 
Q 38.71875 -1.21875 29.203125 -1.21875 
Q 20.84375 -1.21875 15.828125 5.421875 
L 15.578125 5.421875 
L 15.578125 -19.921875 
L 6.78125 -19.921875 
L 6.78125 51.8125 
L 14.796875 51.8125 
L 14.796875 45.125 
z
M 28.609375 6 
Q 34.765625 6 38.796875 11.109375 
Q 42.828125 16.21875 42.828125 26.3125 
Q 42.828125 35.84375 38.9375 40.96875 
Q 35.0625 46.09375 29 46.09375 
Q 22.75 46.09375 18.71875 40.375 
Q 14.703125 34.671875 14.703125 25.59375 
Q 14.703125 15.96875 18.546875 10.984375 
Q 22.40625 6 28.609375 6 
" id="ArialUnicodeMS-70"/>
      <path d="M 27.78125 52.984375 
Q 38.28125 52.984375 45.1875 46.140625 
Q 52.09375 39.3125 52.09375 26.703125 
Q 52.09375 11.421875 44.625 5.09375 
Q 37.15625 -1.21875 27.78125 -1.21875 
Q 17.96875 -1.21875 10.734375 5.265625 
Q 3.515625 11.765625 3.515625 25.875 
Q 3.515625 39.546875 10.5 46.265625 
Q 17.484375 52.984375 27.78125 52.984375 
M 27.78125 6 
Q 35.296875 6 39.203125 11.5625 
Q 43.109375 17.140625 43.109375 26.21875 
Q 43.109375 35.9375 38.6875 40.859375 
Q 34.28125 45.796875 27.78125 45.796875 
Q 21.09375 45.796875 16.796875 40.796875 
Q 12.5 35.796875 12.5 25.875 
Q 12.5 16.015625 16.859375 11 
Q 21.234375 6 27.78125 6 
" id="ArialUnicodeMS-6f"/>
      <path d="M 49.125 17.921875 
Q 47.40625 8.015625 41.296875 3.390625 
Q 35.203125 -1.21875 27.484375 -1.21875 
Q 16.21875 -1.21875 10.0625 6.171875 
Q 3.90625 13.578125 3.90625 25.78125 
Q 3.90625 35.890625 7.4375 41.96875 
Q 10.984375 48.046875 16.296875 50.515625 
Q 21.625 52.984375 27.484375 52.984375 
Q 35.5 52.984375 41.1875 48.828125 
Q 46.875 44.671875 48.1875 36.625 
L 39.703125 35.296875 
Q 38.375 40.53125 35.421875 43.15625 
Q 32.46875 45.796875 27.875 45.796875 
Q 20.515625 45.796875 16.703125 40.578125 
Q 12.890625 35.359375 12.890625 25.984375 
Q 12.890625 16.40625 16.625 11.203125 
Q 20.359375 6 27.390625 6 
Q 33.0625 6 36.296875 9.25 
Q 39.546875 12.5 40.375 19 
z
" id="ArialUnicodeMS-63"/>
      <path d="M 49.03125 0 
L 40.1875 0 
L 40.1875 32.71875 
Q 40.1875 39.0625 37.453125 42.234375 
Q 34.71875 45.40625 29.296875 45.40625 
Q 23.921875 45.40625 19.703125 41.671875 
Q 15.484375 37.9375 15.484375 28.328125 
L 15.484375 0 
L 6.6875 0 
L 6.6875 71.578125 
L 15.484375 71.578125 
L 15.484375 45.90625 
Q 21.734375 52.984375 31.109375 52.984375 
Q 36.140625 52.984375 40.71875 50.921875 
Q 45.3125 48.875 47.171875 44.625 
Q 49.03125 40.375 49.03125 32.8125 
z
" id="ArialUnicodeMS-68"/>
     </defs>
     <g style="fill:#555555;" transform="translate(221.98571 324.046625)scale(0.12 -0.12)">
      <use xlink:href="#ArialUnicodeMS-45"/>
      <use x="66.699219" xlink:href="#ArialUnicodeMS-70"/>
      <use x="122.314453" xlink:href="#ArialUnicodeMS-6f"/>
      <use x="177.929688" xlink:href="#ArialUnicodeMS-63"/>
      <use x="227.929688" xlink:href="#ArialUnicodeMS-68"/>
     </g>
    </g>
   </g>
   <g id="matplotlib.axis_2">
    <g id="ytick_1">
     <g id="line2d_13">
      <path clip-path="url(#p2cfe761ef0)" d="M 48.770313 279.301101 
L 429.224858 279.301101 
" style="fill:none;stroke:#ffffff;stroke-linecap:square;stroke-width:0.8;"/>
     </g>
     <g id="line2d_14">
      <defs>
       <path d="M 0 0 
L -3.5 0 
" id="m65df663175" style="stroke:#555555;stroke-width:0.8;"/>
      </defs>
      <g>
       <use style="fill:#555555;stroke:#555555;stroke-width:0.8;" x="48.770313" xlink:href="#m65df663175" y="279.301101"/>
      </g>
     </g>
     <g id="text_8">
      <!-- 0.65 -->
      <defs>
       <path d="M 18.890625 0 
L 8.890625 0 
L 8.890625 10.015625 
L 18.890625 10.015625 
z
" id="ArialUnicodeMS-2e"/>
       <path d="M 13.09375 36.921875 
Q 19.140625 46.390625 30.328125 46.390625 
Q 39.109375 46.390625 45.265625 39.890625 
Q 51.421875 33.40625 51.421875 23.296875 
Q 51.421875 13.09375 45.28125 5.9375 
Q 39.15625 -1.21875 29 -1.21875 
Q 18.703125 -1.21875 11.453125 6.390625 
Q 4.203125 14.015625 4.203125 33.5 
Q 4.203125 52.640625 10.765625 62.28125 
Q 17.328125 71.921875 29.78125 71.921875 
Q 37.84375 71.921875 43.40625 67.421875 
Q 48.96875 62.9375 50.203125 54.109375 
L 41.40625 53.328125 
Q 39.015625 64.703125 29.296875 64.703125 
Q 22.5625 64.703125 17.71875 58 
Q 12.890625 51.3125 12.890625 36.921875 
z
M 28.8125 6 
Q 34.859375 6 38.625 10.875 
Q 42.390625 15.765625 42.390625 22.703125 
Q 42.390625 29.640625 38.625 34.171875 
Q 34.859375 38.71875 28.515625 38.71875 
Q 22.703125 38.71875 18.5 34.4375 
Q 14.3125 30.171875 14.3125 23.1875 
Q 14.3125 16.0625 18.4375 11.03125 
Q 22.5625 6 28.8125 6 
" id="ArialUnicodeMS-36"/>
      </defs>
      <g style="fill:#555555;" transform="translate(22.309375 282.880007)scale(0.1 -0.1)">
       <use xlink:href="#ArialUnicodeMS-30"/>
       <use x="55.615234" xlink:href="#ArialUnicodeMS-2e"/>
       <use x="83.398438" xlink:href="#ArialUnicodeMS-36"/>
       <use x="139.013672" xlink:href="#ArialUnicodeMS-35"/>
      </g>
     </g>
    </g>
    <g id="ytick_2">
     <g id="line2d_15">
      <path clip-path="url(#p2cfe761ef0)" d="M 48.770313 232.485855 
L 429.224858 232.485855 
" style="fill:none;stroke:#ffffff;stroke-linecap:square;stroke-width:0.8;"/>
     </g>
     <g id="line2d_16">
      <g>
       <use style="fill:#555555;stroke:#555555;stroke-width:0.8;" x="48.770313" xlink:href="#m65df663175" y="232.485855"/>
      </g>
     </g>
     <g id="text_9">
      <!-- 0.70 -->
      <defs>
       <path d="M 51.125 63.8125 
Q 40.578125 52.25 32.859375 35.203125 
Q 25.140625 18.171875 23.78125 0 
L 14.796875 0 
Q 15.140625 14.59375 22 32.046875 
Q 28.859375 49.515625 39.796875 62.109375 
L 4.78125 62.109375 
L 4.78125 70.609375 
L 51.125 70.609375 
z
" id="ArialUnicodeMS-37"/>
      </defs>
      <g style="fill:#555555;" transform="translate(22.309375 236.064761)scale(0.1 -0.1)">
       <use xlink:href="#ArialUnicodeMS-30"/>
       <use x="55.615234" xlink:href="#ArialUnicodeMS-2e"/>
       <use x="83.398438" xlink:href="#ArialUnicodeMS-37"/>
       <use x="139.013672" xlink:href="#ArialUnicodeMS-30"/>
      </g>
     </g>
    </g>
    <g id="ytick_3">
     <g id="line2d_17">
      <path clip-path="url(#p2cfe761ef0)" d="M 48.770313 185.670608 
L 429.224858 185.670608 
" style="fill:none;stroke:#ffffff;stroke-linecap:square;stroke-width:0.8;"/>
     </g>
     <g id="line2d_18">
      <g>
       <use style="fill:#555555;stroke:#555555;stroke-width:0.8;" x="48.770313" xlink:href="#m65df663175" y="185.670608"/>
      </g>
     </g>
     <g id="text_10">
      <!-- 0.75 -->
      <g style="fill:#555555;" transform="translate(22.309375 189.249515)scale(0.1 -0.1)">
       <use xlink:href="#ArialUnicodeMS-30"/>
       <use x="55.615234" xlink:href="#ArialUnicodeMS-2e"/>
       <use x="83.398438" xlink:href="#ArialUnicodeMS-37"/>
       <use x="139.013672" xlink:href="#ArialUnicodeMS-35"/>
      </g>
     </g>
    </g>
    <g id="ytick_4">
     <g id="line2d_19">
      <path clip-path="url(#p2cfe761ef0)" d="M 48.770313 138.855362 
L 429.224858 138.855362 
" style="fill:none;stroke:#ffffff;stroke-linecap:square;stroke-width:0.8;"/>
     </g>
     <g id="line2d_20">
      <g>
       <use style="fill:#555555;stroke:#555555;stroke-width:0.8;" x="48.770313" xlink:href="#m65df663175" y="138.855362"/>
      </g>
     </g>
     <g id="text_11">
      <!-- 0.80 -->
      <defs>
       <path d="M 37.890625 38.71875 
Q 51.3125 34.421875 51.3125 20.40625 
Q 51.3125 11.1875 44.71875 4.984375 
Q 38.140625 -1.21875 27.78125 -1.21875 
Q 17.328125 -1.21875 10.765625 5.03125 
Q 4.203125 11.28125 4.203125 20.703125 
Q 4.203125 27.484375 7.890625 32.5625 
Q 11.578125 37.640625 17.828125 38.71875 
L 17.828125 38.921875 
Q 7.078125 42.234375 7.078125 53.421875 
Q 7.078125 61.328125 12.734375 66.625 
Q 18.40625 71.921875 27.59375 71.921875 
Q 36.921875 71.921875 42.65625 66.453125 
Q 48.390625 60.984375 48.390625 53.21875 
Q 48.390625 42.671875 37.890625 38.921875 
z
M 27.78125 42.1875 
Q 32.71875 42.1875 36.0625 45.328125 
Q 39.40625 48.484375 39.40625 53.21875 
Q 39.40625 58.0625 36.015625 61.375 
Q 32.625 64.703125 27.6875 64.703125 
Q 22.65625 64.703125 19.375 61.421875 
Q 16.109375 58.15625 16.109375 53.71875 
Q 16.109375 48.390625 19.484375 45.28125 
Q 22.859375 42.1875 27.78125 42.1875 
M 27.78125 6 
Q 33.984375 6 38.125 10 
Q 42.28125 14.015625 42.28125 20.40625 
Q 42.28125 26.8125 38 30.90625 
Q 33.734375 35.015625 27.59375 35.015625 
Q 21.1875 35.015625 17.1875 30.78125 
Q 13.1875 26.5625 13.1875 20.609375 
Q 13.1875 14.40625 17.3125 10.203125 
Q 21.4375 6 27.78125 6 
" id="ArialUnicodeMS-38"/>
      </defs>
      <g style="fill:#555555;" transform="translate(22.309375 142.434268)scale(0.1 -0.1)">
       <use xlink:href="#ArialUnicodeMS-30"/>
       <use x="55.615234" xlink:href="#ArialUnicodeMS-2e"/>
       <use x="83.398438" xlink:href="#ArialUnicodeMS-38"/>
       <use x="139.013672" xlink:href="#ArialUnicodeMS-30"/>
      </g>
     </g>
    </g>
    <g id="ytick_5">
     <g id="line2d_21">
      <path clip-path="url(#p2cfe761ef0)" d="M 48.770313 92.040116 
L 429.224858 92.040116 
" style="fill:none;stroke:#ffffff;stroke-linecap:square;stroke-width:0.8;"/>
     </g>
     <g id="line2d_22">
      <g>
       <use style="fill:#555555;stroke:#555555;stroke-width:0.8;" x="48.770313" xlink:href="#m65df663175" y="92.040116"/>
      </g>
     </g>
     <g id="text_12">
      <!-- 0.85 -->
      <g style="fill:#555555;" transform="translate(22.309375 95.619022)scale(0.1 -0.1)">
       <use xlink:href="#ArialUnicodeMS-30"/>
       <use x="55.615234" xlink:href="#ArialUnicodeMS-2e"/>
       <use x="83.398438" xlink:href="#ArialUnicodeMS-38"/>
       <use x="139.013672" xlink:href="#ArialUnicodeMS-35"/>
      </g>
     </g>
    </g>
    <g id="ytick_6">
     <g id="line2d_23">
      <path clip-path="url(#p2cfe761ef0)" d="M 48.770313 45.224869 
L 429.224858 45.224869 
" style="fill:none;stroke:#ffffff;stroke-linecap:square;stroke-width:0.8;"/>
     </g>
     <g id="line2d_24">
      <g>
       <use style="fill:#555555;stroke:#555555;stroke-width:0.8;" x="48.770313" xlink:href="#m65df663175" y="45.224869"/>
      </g>
     </g>
     <g id="text_13">
      <!-- 0.90 -->
      <defs>
       <path d="M 42.390625 33.6875 
Q 39.796875 29.5 35.28125 26.90625 
Q 30.765625 24.3125 25.484375 24.3125 
Q 16.65625 24.3125 10.46875 30.78125 
Q 4.296875 37.25 4.296875 47.703125 
Q 4.296875 58.34375 10.59375 65.125 
Q 16.890625 71.921875 26.8125 71.921875 
Q 36.765625 71.921875 44.03125 64.15625 
Q 51.3125 56.390625 51.3125 37.3125 
Q 51.3125 17.921875 44.671875 8.34375 
Q 38.03125 -1.21875 25.6875 -1.21875 
Q 17.625 -1.21875 12.203125 3.203125 
Q 6.78125 7.625 5.609375 16.609375 
L 14.015625 17.28125 
Q 16.015625 6 25.875 6 
Q 33.984375 6 38.28125 13.390625 
Q 42.578125 20.796875 42.578125 33.6875 
z
M 27.59375 31.984375 
Q 34.03125 31.984375 37.8125 36.546875 
Q 41.609375 41.109375 41.609375 48.09375 
Q 41.609375 55.171875 37.71875 59.9375 
Q 33.84375 64.703125 27.78125 64.703125 
Q 21.6875 64.703125 17.484375 59.640625 
Q 13.28125 54.59375 13.28125 47.40625 
Q 13.28125 40.625 17.40625 36.296875 
Q 21.53125 31.984375 27.59375 31.984375 
" id="ArialUnicodeMS-39"/>
      </defs>
      <g style="fill:#555555;" transform="translate(22.309375 48.803776)scale(0.1 -0.1)">
       <use xlink:href="#ArialUnicodeMS-30"/>
       <use x="55.615234" xlink:href="#ArialUnicodeMS-2e"/>
       <use x="83.398438" xlink:href="#ArialUnicodeMS-39"/>
       <use x="139.013672" xlink:href="#ArialUnicodeMS-30"/>
      </g>
     </g>
    </g>
    <g id="text_14">
     <!-- Accuracy -->
     <defs>
      <path d="M 66.796875 0 
L 56.109375 0 
L 47.703125 21.78125 
L 17.828125 21.78125 
L 9.90625 0 
L -0.09375 0 
L 27.390625 71.578125 
L 37.59375 71.578125 
z
M 44.828125 29.296875 
Q 36.03125 52.546875 34.90625 55.6875 
Q 33.796875 58.84375 32.421875 64.109375 
L 32.171875 64.109375 
Q 30.8125 56.890625 28.515625 50.734375 
L 20.515625 29.296875 
z
" id="ArialUnicodeMS-41"/>
      <path d="M 48.6875 0 
L 40.828125 0 
L 40.828125 7.625 
L 40.578125 7.625 
Q 34.625 -1.21875 24.3125 -1.21875 
Q 18.890625 -1.21875 14.28125 1.296875 
Q 9.671875 3.8125 8.125 8.21875 
Q 6.59375 12.640625 6.59375 19.671875 
L 6.59375 51.8125 
L 15.375 51.8125 
L 15.375 23.09375 
Q 15.375 16.21875 16.03125 13.234375 
Q 16.703125 10.25 19.484375 8.3125 
Q 22.265625 6.390625 26.125 6.390625 
Q 31.109375 6.390625 35.5 9.828125 
Q 39.890625 13.28125 39.890625 24.125 
L 39.890625 51.8125 
L 48.6875 51.8125 
z
" id="ArialUnicodeMS-75"/>
      <path d="M 34.625 50.203125 
L 31.59375 42.09375 
Q 28.328125 44 25.203125 44 
Q 20.265625 44 17.71875 39.578125 
Q 15.1875 35.15625 15.1875 27.203125 
L 15.1875 0 
L 6.390625 0 
L 6.390625 51.8125 
L 14.40625 51.8125 
L 14.40625 44 
L 14.59375 44 
Q 18.796875 52.984375 25.59375 52.984375 
Q 30.078125 52.984375 34.625 50.203125 
" id="ArialUnicodeMS-72"/>
      <path d="M 51.609375 0 
L 42.390625 0 
Q 41.109375 2.4375 40.578125 6.390625 
Q 31.734375 -1.21875 21.484375 -1.21875 
Q 13.28125 -1.21875 8.546875 2.875 
Q 3.8125 6.984375 3.8125 13.71875 
Q 3.8125 20.171875 8.375 24.34375 
Q 12.9375 28.515625 24.21875 29.890625 
L 32.421875 31.109375 
Q 37.015625 31.84375 39.984375 32.90625 
Q 39.984375 36.859375 39.734375 38.5 
Q 39.5 40.140625 38.296875 41.890625 
Q 37.109375 43.65625 34.46875 44.71875 
Q 31.84375 45.796875 27.390625 45.796875 
Q 21.734375 45.796875 18.4375 43.703125 
Q 15.140625 41.609375 13.921875 35.890625 
L 5.328125 37.015625 
Q 6.734375 44.96875 12.59375 48.96875 
Q 18.453125 52.984375 28.71875 52.984375 
Q 38.03125 52.984375 42.40625 50.21875 
Q 46.78125 47.46875 47.78125 43.5625 
Q 48.78125 39.65625 48.78125 33.5 
L 48.78125 21.6875 
Q 48.78125 10.890625 49.1875 7.203125 
Q 49.609375 3.515625 51.609375 0 
M 39.984375 22.796875 
L 39.984375 25.984375 
Q 33.109375 23.6875 23.140625 22.34375 
Q 13.1875 21 13.1875 13.921875 
Q 13.1875 10.359375 15.875 8.03125 
Q 18.5625 5.71875 23.578125 5.71875 
Q 30.078125 5.71875 35.03125 9.59375 
Q 39.984375 13.484375 39.984375 22.796875 
" id="ArialUnicodeMS-61"/>
      <path d="M 49.21875 51.8125 
L 29.390625 -0.875 
Q 29.34375 -0.984375 29.296875 -1.21875 
Q 26.46875 -10.015625 22.671875 -15.5 
Q 18.890625 -21 11.921875 -21 
Q 9.578125 -21 6.203125 -20.015625 
L 5.328125 -11.71875 
Q 7.859375 -12.5 10.296875 -12.5 
Q 15.1875 -12.5 17.0625 -9.8125 
Q 18.953125 -7.125 21.296875 -0.09375 
L 1.609375 51.8125 
L 11.078125 51.8125 
L 23.296875 17.875 
Q 24.359375 14.75 25.59375 9.8125 
L 25.78125 9.8125 
Q 27 15.484375 28.90625 20.609375 
L 40.28125 51.8125 
z
" id="ArialUnicodeMS-79"/>
     </defs>
     <g style="fill:#555555;" transform="translate(15.789375 184.080375)rotate(-90)scale(0.12 -0.12)">
      <use xlink:href="#ArialUnicodeMS-41"/>
      <use x="66.699219" xlink:href="#ArialUnicodeMS-63"/>
      <use x="116.699219" xlink:href="#ArialUnicodeMS-63"/>
      <use x="166.699219" xlink:href="#ArialUnicodeMS-75"/>
      <use x="222.314453" xlink:href="#ArialUnicodeMS-72"/>
      <use x="255.615234" xlink:href="#ArialUnicodeMS-61"/>
      <use x="311.230469" xlink:href="#ArialUnicodeMS-63"/>
      <use x="361.230469" xlink:href="#ArialUnicodeMS-79"/>
     </g>
    </g>
   </g>
   <g id="line2d_25">
    <path clip-path="url(#p2cfe761ef0)" d="M 61.098002 282.952705 
L 66.109258 175.957539 
L 71.120514 186.339413 
L 76.13177 179.720235 
L 81.143025 175.456382 
L 86.154281 178.648328 
L 91.165537 172.488395 
L 96.176793 163.615406 
L 101.188049 165.161067 
L 106.199305 163.733217 
L 111.210561 163.551171 
L 116.221816 154.906325 
L 121.233072 155.313836 
L 126.244328 154.192372 
L 131.255584 169.084657 
L 136.26684 161.881503 
L 141.278096 155.994527 
L 146.289352 148.887196 
L 151.300608 146.306237 
L 156.311863 149.689047 
L 161.323119 149.460457 
L 166.334375 131.364896 
L 171.345631 144.929953 
L 176.356887 141.864915 
L 181.368143 156.59586 
L 186.379399 143.387249 
L 191.390654 138.78107 
L 196.40191 145.097378 
L 201.413166 138.815169 
L 206.424422 132.568733 
L 211.435678 115.348132 
L 216.446934 128.051847 
L 221.45819 128.033151 
L 226.469446 123.966581 
L 231.480701 124.649337 
L 236.491957 119.906317 
L 241.503213 127.494882 
L 246.514469 124.317112 
L 251.525725 120.02636 
L 256.536981 115.500321 
L 261.548237 115.366717 
L 266.559492 115.44775 
L 271.570748 116.038591 
L 276.582004 124.81079 
L 281.59326 109.919062 
L 286.604516 114.36736 
L 291.615772 113.497089 
L 296.627028 109.34502 
L 301.638284 109.76559 
L 306.649539 101.156797 
L 311.660795 106.832148 
L 316.672051 111.15365 
L 321.683307 111.126304 
L 326.694563 109.019938 
L 331.705819 107.174084 
L 336.717075 110.76623 
L 341.728331 107.17587 
L 346.739586 102.106762 
L 351.750842 100.232781 
L 356.762098 99.26306 
L 361.773354 104.958111 
L 366.78461 101.104337 
L 371.795866 35.861795 
L 376.807122 97.024428 
L 381.818377 91.780027 
L 386.829633 98.282176 
L 391.840889 97.309552 
L 396.852145 95.263459 
L 401.863401 93.654455 
L 406.874657 93.348515 
L 411.885913 89.630522 
L 416.897169 93.128854 
L 421.908424 89.920891 
" style="fill:none;stroke:#e24a33;stroke-linecap:square;stroke-width:1.5;"/>
   </g>
   <g id="line2d_26">
    <path clip-path="url(#p2cfe761ef0)" d="M 61.098002 144.529921 
L 66.109258 132.329595 
L 71.120514 135.450609 
L 76.13177 145.948563 
L 81.143025 138.571622 
L 86.154281 124.668926 
L 91.165537 126.371297 
L 96.176793 121.547913 
L 101.188049 115.305886 
L 106.199305 122.966555 
L 111.210561 129.208582 
L 116.221816 117.291985 
L 121.233072 124.101469 
L 126.244328 119.561813 
L 131.255584 122.11537 
L 136.26684 116.157071 
L 141.278096 112.752329 
L 146.289352 111.049958 
L 151.300608 109.915044 
L 156.311863 115.305886 
L 161.323119 109.347587 
L 166.334375 113.319786 
L 171.345631 107.077759 
L 176.356887 101.686918 
L 181.368143 107.077759 
L 186.379399 109.631316 
L 191.390654 100.268275 
L 196.40191 104.240474 
L 201.413166 104.240474 
L 206.424422 103.673017 
L 211.435678 95.728564 
L 216.446934 105.09166 
L 221.45819 97.714663 
L 226.469446 92.891279 
L 231.480701 95.728564 
L 236.491957 95.161107 
L 241.503213 92.323822 
L 246.514469 91.756365 
L 251.525725 89.770265 
L 256.536981 93.175007 
L 261.548237 90.337722 
L 266.559492 92.040093 
L 271.570748 92.323822 
L 276.582004 93.742464 
L 281.59326 87.784166 
L 286.604516 93.175007 
L 291.615772 90.621451 
L 296.627028 91.756365 
L 301.638284 87.500437 
L 306.649539 85.514338 
L 311.660795 80.690953 
L 316.672051 82.960781 
L 321.683307 87.784166 
L 326.694563 81.25841 
L 331.705819 88.067894 
L 336.717075 89.202808 
L 341.728331 83.811967 
L 346.739586 82.960781 
L 351.750842 77.286212 
L 356.762098 84.946881 
L 361.773354 89.770265 
L 366.78461 74.732655 
L 371.795866 83.528238 
L 376.807122 81.542139 
L 381.818377 77.56994 
L 386.829633 83.24451 
L 391.840889 82.109596 
L 396.852145 76.718755 
L 401.863401 79.272311 
L 406.874657 80.407225 
L 411.885913 81.825867 
L 416.897169 79.839768 
L 421.908424 72.746556 
" style="fill:none;stroke:#348abd;stroke-linecap:square;stroke-width:1.5;"/>
   </g>
   <g id="patch_3">
    <path d="M 48.770313 295.30725 
L 48.770313 23.50725 
" style="fill:none;stroke:#ffffff;stroke-linecap:square;stroke-linejoin:miter;"/>
   </g>
   <g id="patch_4">
    <path d="M 429.224858 295.30725 
L 429.224858 23.50725 
" style="fill:none;stroke:#ffffff;stroke-linecap:square;stroke-linejoin:miter;"/>
   </g>
   <g id="patch_5">
    <path d="M 48.770313 295.30725 
L 429.224858 295.30725 
" style="fill:none;stroke:#ffffff;stroke-linecap:square;stroke-linejoin:miter;"/>
   </g>
   <g id="patch_6">
    <path d="M 48.770313 23.50725 
L 429.224858 23.50725 
" style="fill:none;stroke:#ffffff;stroke-linecap:square;stroke-linejoin:miter;"/>
   </g>
   <g id="text_15">
    <!-- Accuracy -->
    <g transform="translate(209.389835 17.50725)scale(0.144 -0.144)">
     <use xlink:href="#ArialUnicodeMS-41"/>
     <use x="66.699219" xlink:href="#ArialUnicodeMS-63"/>
     <use x="116.699219" xlink:href="#ArialUnicodeMS-63"/>
     <use x="166.699219" xlink:href="#ArialUnicodeMS-75"/>
     <use x="222.314453" xlink:href="#ArialUnicodeMS-72"/>
     <use x="255.615234" xlink:href="#ArialUnicodeMS-61"/>
     <use x="311.230469" xlink:href="#ArialUnicodeMS-63"/>
     <use x="361.230469" xlink:href="#ArialUnicodeMS-79"/>
    </g>
   </g>
   <g id="legend_1">
    <g id="patch_7">
     <path d="M 55.770313 59.80725 
L 107.221875 59.80725 
Q 109.221875 59.80725 109.221875 57.80725 
L 109.221875 30.50725 
Q 109.221875 28.50725 107.221875 28.50725 
L 55.770313 28.50725 
Q 53.770313 28.50725 53.770313 30.50725 
L 53.770313 57.80725 
Q 53.770313 59.80725 55.770313 59.80725 
z
" style="fill:#e5e5e5;opacity:0.8;stroke:#cccccc;stroke-linejoin:miter;stroke-width:0.5;"/>
    </g>
    <g id="line2d_27">
     <path d="M 57.770313 36.165063 
L 77.770313 36.165063 
" style="fill:none;stroke:#e24a33;stroke-linecap:square;stroke-width:1.5;"/>
    </g>
    <g id="line2d_28"/>
    <g id="text_16">
     <!-- train -->
     <defs>
      <path d="M 26.90625 0.09375 
Q 23 -0.6875 20.3125 -0.6875 
Q 14.546875 -0.6875 11.90625 1.34375 
Q 9.28125 3.375 8.6875 6.5 
Q 8.109375 9.625 8.109375 15.1875 
L 8.109375 45.015625 
L 1.703125 45.015625 
L 1.703125 51.8125 
L 8.109375 51.8125 
L 8.109375 64.703125 
L 16.890625 70.015625 
L 16.890625 51.8125 
L 25.6875 51.8125 
L 25.6875 45.015625 
L 16.890625 45.015625 
L 16.890625 14.703125 
Q 16.890625 10.796875 17.6875 9.15625 
Q 18.5 7.515625 21.78125 7.515625 
Q 23.6875 7.515625 25.6875 7.90625 
z
" id="ArialUnicodeMS-74"/>
      <path d="M 15.484375 0 
L 6.6875 0 
L 6.6875 51.8125 
L 15.484375 51.8125 
z
M 15.484375 61.625 
L 6.6875 61.625 
L 6.6875 71.578125 
L 15.484375 71.578125 
z
" id="ArialUnicodeMS-69"/>
      <path d="M 49.03125 0 
L 40.1875 0 
L 40.1875 31.5 
Q 40.1875 39.453125 37.328125 42.421875 
Q 34.46875 45.40625 29.390625 45.40625 
Q 25.484375 45.40625 21.984375 43.5 
Q 18.5 41.609375 17.03125 38.140625 
Q 15.578125 34.671875 15.578125 28.328125 
L 15.578125 0 
L 6.78125 0 
L 6.78125 51.8125 
L 14.703125 51.8125 
L 14.703125 44.484375 
L 14.890625 44.484375 
Q 17.671875 48.734375 21.75 50.859375 
Q 25.828125 52.984375 31.203125 52.984375 
Q 35.296875 52.984375 39.296875 51.515625 
Q 43.3125 50.046875 45.578125 47.109375 
Q 47.859375 44.1875 48.4375 40.859375 
Q 49.03125 37.546875 49.03125 31.890625 
z
" id="ArialUnicodeMS-6e"/>
     </defs>
     <g transform="translate(85.770313 39.665063)scale(0.1 -0.1)">
      <use xlink:href="#ArialUnicodeMS-74"/>
      <use x="27.783203" xlink:href="#ArialUnicodeMS-72"/>
      <use x="61.083984" xlink:href="#ArialUnicodeMS-61"/>
      <use x="116.699219" xlink:href="#ArialUnicodeMS-69"/>
      <use x="138.916016" xlink:href="#ArialUnicodeMS-6e"/>
     </g>
    </g>
    <g id="line2d_29">
     <path d="M 57.770313 50.315063 
L 77.770313 50.315063 
" style="fill:none;stroke:#348abd;stroke-linecap:square;stroke-width:1.5;"/>
    </g>
    <g id="line2d_30"/>
    <g id="text_17">
     <!-- dev -->
     <defs>
      <path d="M 48.578125 0 
L 40.375 0 
L 40.375 6.59375 
L 40.1875 6.59375 
Q 35.453125 -1.21875 25.875 -1.21875 
Q 16.359375 -1.21875 9.984375 6.328125 
Q 3.609375 13.875 3.609375 25.875 
Q 3.609375 38.421875 9.609375 45.703125 
Q 15.625 52.984375 25.484375 52.984375 
Q 34.765625 52.984375 39.59375 45.90625 
L 39.796875 45.90625 
L 39.796875 71.578125 
L 48.578125 71.578125 
z
M 26.8125 6 
Q 32.5625 6 36.5625 10.734375 
Q 40.578125 15.484375 40.578125 25.09375 
Q 40.578125 34.578125 36.90625 40.1875 
Q 33.25 45.796875 26.421875 45.796875 
Q 19.578125 45.796875 16.078125 40.296875 
Q 12.59375 34.8125 12.59375 25.875 
Q 12.59375 19.4375 14.46875 14.96875 
Q 16.359375 10.5 19.71875 8.25 
Q 23.09375 6 26.8125 6 
" id="ArialUnicodeMS-64"/>
      <path d="M 51.703125 23.6875 
L 12.890625 23.6875 
Q 13.421875 15.09375 17.796875 10.546875 
Q 22.171875 6 28.71875 6 
Q 33.734375 6 37.15625 8.65625 
Q 40.578125 11.328125 42.390625 16.703125 
L 51.421875 15.578125 
Q 49.21875 7.46875 43.359375 3.125 
Q 37.5 -1.21875 28.71875 -1.21875 
Q 17.046875 -1.21875 10.46875 5.9375 
Q 3.90625 13.09375 3.90625 25.484375 
Q 3.90625 37.75 10.28125 45.359375 
Q 16.65625 52.984375 28.21875 52.984375 
Q 33.890625 52.984375 39.140625 50.484375 
Q 44.390625 48 48.046875 42.015625 
Q 51.703125 36.03125 51.703125 23.6875 
M 42.671875 30.90625 
Q 42.140625 38.8125 37.765625 42.296875 
Q 33.40625 45.796875 28.21875 45.796875 
Q 22.015625 45.796875 18.015625 41.640625 
Q 14.015625 37.5 13.375 30.90625 
z
" id="ArialUnicodeMS-65"/>
      <path d="M 48.78125 51.8125 
L 29.203125 0 
L 21 0 
L 1.3125 51.8125 
L 10.59375 51.8125 
L 21.296875 21.828125 
Q 24.3125 13.328125 24.90625 10.296875 
L 25.09375 10.296875 
Q 25.875 13.421875 27.78125 18.703125 
L 39.796875 51.8125 
z
" id="ArialUnicodeMS-76"/>
     </defs>
     <g transform="translate(85.770313 53.815063)scale(0.1 -0.1)">
      <use xlink:href="#ArialUnicodeMS-64"/>
      <use x="55.615234" xlink:href="#ArialUnicodeMS-65"/>
      <use x="111.230469" xlink:href="#ArialUnicodeMS-76"/>
     </g>
    </g>
   </g>
  </g>
  <g id="axes_2">
   <g id="patch_8">
    <path d="M 505.315767 295.30725 
L 885.770312 295.30725 
L 885.770312 23.50725 
L 505.315767 23.50725 
z
" style="fill:#e5e5e5;"/>
   </g>
   <g id="matplotlib.axis_3">
    <g id="xtick_7">
     <g id="line2d_31">
      <path clip-path="url(#p313f8b7628)" d="M 512.632201 295.30725 
L 512.632201 23.50725 
" style="fill:none;stroke:#ffffff;stroke-linecap:square;stroke-width:0.8;"/>
     </g>
     <g id="line2d_32">
      <g>
       <use style="fill:#555555;stroke:#555555;stroke-width:0.8;" x="512.632201" xlink:href="#md440d14c75" y="295.30725"/>
      </g>
     </g>
     <g id="text_18">
      <!-- 0 -->
      <g style="fill:#555555;" transform="translate(509.851732 309.465062)scale(0.1 -0.1)">
       <use xlink:href="#ArialUnicodeMS-30"/>
      </g>
     </g>
    </g>
    <g id="xtick_8">
     <g id="line2d_33">
      <path clip-path="url(#p313f8b7628)" d="M 585.796536 295.30725 
L 585.796536 23.50725 
" style="fill:none;stroke:#ffffff;stroke-linecap:square;stroke-width:0.8;"/>
     </g>
     <g id="line2d_34">
      <g>
       <use style="fill:#555555;stroke:#555555;stroke-width:0.8;" x="585.796536" xlink:href="#md440d14c75" y="295.30725"/>
      </g>
     </g>
     <g id="text_19">
      <!-- 10 -->
      <g style="fill:#555555;" transform="translate(580.235599 309.465062)scale(0.1 -0.1)">
       <use xlink:href="#ArialUnicodeMS-31"/>
       <use x="55.615234" xlink:href="#ArialUnicodeMS-30"/>
      </g>
     </g>
    </g>
    <g id="xtick_9">
     <g id="line2d_35">
      <path clip-path="url(#p313f8b7628)" d="M 658.960872 295.30725 
L 658.960872 23.50725 
" style="fill:none;stroke:#ffffff;stroke-linecap:square;stroke-width:0.8;"/>
     </g>
     <g id="line2d_36">
      <g>
       <use style="fill:#555555;stroke:#555555;stroke-width:0.8;" x="658.960872" xlink:href="#md440d14c75" y="295.30725"/>
      </g>
     </g>
     <g id="text_20">
      <!-- 20 -->
      <g style="fill:#555555;" transform="translate(653.399934 309.465062)scale(0.1 -0.1)">
       <use xlink:href="#ArialUnicodeMS-32"/>
       <use x="55.615234" xlink:href="#ArialUnicodeMS-30"/>
      </g>
     </g>
    </g>
    <g id="xtick_10">
     <g id="line2d_37">
      <path clip-path="url(#p313f8b7628)" d="M 732.125208 295.30725 
L 732.125208 23.50725 
" style="fill:none;stroke:#ffffff;stroke-linecap:square;stroke-width:0.8;"/>
     </g>
     <g id="line2d_38">
      <g>
       <use style="fill:#555555;stroke:#555555;stroke-width:0.8;" x="732.125208" xlink:href="#md440d14c75" y="295.30725"/>
      </g>
     </g>
     <g id="text_21">
      <!-- 30 -->
      <g style="fill:#555555;" transform="translate(726.56427 309.465062)scale(0.1 -0.1)">
       <use xlink:href="#ArialUnicodeMS-33"/>
       <use x="55.615234" xlink:href="#ArialUnicodeMS-30"/>
      </g>
     </g>
    </g>
    <g id="xtick_11">
     <g id="line2d_39">
      <path clip-path="url(#p313f8b7628)" d="M 805.289543 295.30725 
L 805.289543 23.50725 
" style="fill:none;stroke:#ffffff;stroke-linecap:square;stroke-width:0.8;"/>
     </g>
     <g id="line2d_40">
      <g>
       <use style="fill:#555555;stroke:#555555;stroke-width:0.8;" x="805.289543" xlink:href="#md440d14c75" y="295.30725"/>
      </g>
     </g>
     <g id="text_22">
      <!-- 40 -->
      <g style="fill:#555555;" transform="translate(799.728606 309.465062)scale(0.1 -0.1)">
       <use xlink:href="#ArialUnicodeMS-34"/>
       <use x="55.615234" xlink:href="#ArialUnicodeMS-30"/>
      </g>
     </g>
    </g>
    <g id="xtick_12">
     <g id="line2d_41">
      <path clip-path="url(#p313f8b7628)" d="M 878.453879 295.30725 
L 878.453879 23.50725 
" style="fill:none;stroke:#ffffff;stroke-linecap:square;stroke-width:0.8;"/>
     </g>
     <g id="line2d_42">
      <g>
       <use style="fill:#555555;stroke:#555555;stroke-width:0.8;" x="878.453879" xlink:href="#md440d14c75" y="295.30725"/>
      </g>
     </g>
     <g id="text_23">
      <!-- 50 -->
      <g style="fill:#555555;" transform="translate(872.892941 309.465062)scale(0.1 -0.1)">
       <use xlink:href="#ArialUnicodeMS-35"/>
       <use x="55.615234" xlink:href="#ArialUnicodeMS-30"/>
      </g>
     </g>
    </g>
    <g id="text_24">
     <!-- Epoch -->
     <g style="fill:#555555;" transform="translate(678.531165 324.046625)scale(0.12 -0.12)">
      <use xlink:href="#ArialUnicodeMS-45"/>
      <use x="66.699219" xlink:href="#ArialUnicodeMS-70"/>
      <use x="122.314453" xlink:href="#ArialUnicodeMS-6f"/>
      <use x="177.929688" xlink:href="#ArialUnicodeMS-63"/>
      <use x="227.929688" xlink:href="#ArialUnicodeMS-68"/>
     </g>
    </g>
   </g>
   <g id="matplotlib.axis_4">
    <g id="ytick_7">
     <g id="line2d_43">
      <path clip-path="url(#p313f8b7628)" d="M 505.315767 282.177427 
L 885.770312 282.177427 
" style="fill:none;stroke:#ffffff;stroke-linecap:square;stroke-width:0.8;"/>
     </g>
     <g id="line2d_44">
      <g>
       <use style="fill:#555555;stroke:#555555;stroke-width:0.8;" x="505.315767" xlink:href="#m65df663175" y="282.177427"/>
      </g>
     </g>
     <g id="text_25">
      <!-- 0.4 -->
      <g style="fill:#555555;" transform="translate(484.415767 285.756334)scale(0.1 -0.1)">
       <use xlink:href="#ArialUnicodeMS-30"/>
       <use x="55.615234" xlink:href="#ArialUnicodeMS-2e"/>
       <use x="83.398438" xlink:href="#ArialUnicodeMS-34"/>
      </g>
     </g>
    </g>
    <g id="ytick_8">
     <g id="line2d_45">
      <path clip-path="url(#p313f8b7628)" d="M 505.315767 232.845353 
L 885.770312 232.845353 
" style="fill:none;stroke:#ffffff;stroke-linecap:square;stroke-width:0.8;"/>
     </g>
     <g id="line2d_46">
      <g>
       <use style="fill:#555555;stroke:#555555;stroke-width:0.8;" x="505.315767" xlink:href="#m65df663175" y="232.845353"/>
      </g>
     </g>
     <g id="text_26">
      <!-- 0.6 -->
      <g style="fill:#555555;" transform="translate(484.415767 236.424259)scale(0.1 -0.1)">
       <use xlink:href="#ArialUnicodeMS-30"/>
       <use x="55.615234" xlink:href="#ArialUnicodeMS-2e"/>
       <use x="83.398438" xlink:href="#ArialUnicodeMS-36"/>
      </g>
     </g>
    </g>
    <g id="ytick_9">
     <g id="line2d_47">
      <path clip-path="url(#p313f8b7628)" d="M 505.315767 183.513278 
L 885.770312 183.513278 
" style="fill:none;stroke:#ffffff;stroke-linecap:square;stroke-width:0.8;"/>
     </g>
     <g id="line2d_48">
      <g>
       <use style="fill:#555555;stroke:#555555;stroke-width:0.8;" x="505.315767" xlink:href="#m65df663175" y="183.513278"/>
      </g>
     </g>
     <g id="text_27">
      <!-- 0.8 -->
      <g style="fill:#555555;" transform="translate(484.415767 187.092184)scale(0.1 -0.1)">
       <use xlink:href="#ArialUnicodeMS-30"/>
       <use x="55.615234" xlink:href="#ArialUnicodeMS-2e"/>
       <use x="83.398438" xlink:href="#ArialUnicodeMS-38"/>
      </g>
     </g>
    </g>
    <g id="ytick_10">
     <g id="line2d_49">
      <path clip-path="url(#p313f8b7628)" d="M 505.315767 134.181204 
L 885.770312 134.181204 
" style="fill:none;stroke:#ffffff;stroke-linecap:square;stroke-width:0.8;"/>
     </g>
     <g id="line2d_50">
      <g>
       <use style="fill:#555555;stroke:#555555;stroke-width:0.8;" x="505.315767" xlink:href="#m65df663175" y="134.181204"/>
      </g>
     </g>
     <g id="text_28">
      <!-- 1.0 -->
      <g style="fill:#555555;" transform="translate(484.415767 137.76011)scale(0.1 -0.1)">
       <use xlink:href="#ArialUnicodeMS-31"/>
       <use x="55.615234" xlink:href="#ArialUnicodeMS-2e"/>
       <use x="83.398438" xlink:href="#ArialUnicodeMS-30"/>
      </g>
     </g>
    </g>
    <g id="ytick_11">
     <g id="line2d_51">
      <path clip-path="url(#p313f8b7628)" d="M 505.315767 84.849129 
L 885.770312 84.849129 
" style="fill:none;stroke:#ffffff;stroke-linecap:square;stroke-width:0.8;"/>
     </g>
     <g id="line2d_52">
      <g>
       <use style="fill:#555555;stroke:#555555;stroke-width:0.8;" x="505.315767" xlink:href="#m65df663175" y="84.849129"/>
      </g>
     </g>
     <g id="text_29">
      <!-- 1.2 -->
      <g style="fill:#555555;" transform="translate(484.415767 88.428035)scale(0.1 -0.1)">
       <use xlink:href="#ArialUnicodeMS-31"/>
       <use x="55.615234" xlink:href="#ArialUnicodeMS-2e"/>
       <use x="83.398438" xlink:href="#ArialUnicodeMS-32"/>
      </g>
     </g>
    </g>
    <g id="ytick_12">
     <g id="line2d_53">
      <path clip-path="url(#p313f8b7628)" d="M 505.315767 35.517055 
L 885.770312 35.517055 
" style="fill:none;stroke:#ffffff;stroke-linecap:square;stroke-width:0.8;"/>
     </g>
     <g id="line2d_54">
      <g>
       <use style="fill:#555555;stroke:#555555;stroke-width:0.8;" x="505.315767" xlink:href="#m65df663175" y="35.517055"/>
      </g>
     </g>
     <g id="text_30">
      <!-- 1.4 -->
      <g style="fill:#555555;" transform="translate(484.415767 39.095961)scale(0.1 -0.1)">
       <use xlink:href="#ArialUnicodeMS-31"/>
       <use x="55.615234" xlink:href="#ArialUnicodeMS-2e"/>
       <use x="83.398438" xlink:href="#ArialUnicodeMS-34"/>
      </g>
     </g>
    </g>
    <g id="text_31">
     <!-- Loss -->
     <defs>
      <path d="M 52.296875 0 
L 7.515625 0 
L 7.515625 71.578125 
L 17 71.578125 
L 17 8.5 
L 52.296875 8.5 
z
" id="ArialUnicodeMS-4c"/>
      <path d="M 35.59375 37.3125 
Q 35.015625 41.546875 32.15625 43.671875 
Q 29.296875 45.796875 24.21875 45.796875 
Q 19.1875 45.796875 16.078125 44.09375 
Q 12.984375 42.390625 12.984375 39.109375 
Q 12.984375 36.03125 15.453125 34.71875 
Q 17.921875 33.40625 25.203125 31.5 
Q 33.40625 29.390625 37.46875 27.78125 
Q 41.546875 26.171875 43.8125 23.265625 
Q 46.09375 20.359375 46.09375 15.1875 
Q 46.09375 8.25 40.421875 3.515625 
Q 34.765625 -1.21875 25.296875 -1.21875 
Q 15.4375 -1.21875 9.890625 2.953125 
Q 4.34375 7.125 3.078125 15.484375 
L 11.8125 16.796875 
Q 12.5 11.375 15.84375 8.6875 
Q 19.1875 6 25.203125 6 
Q 30.953125 6 34.03125 8.421875 
Q 37.109375 10.84375 37.109375 14.3125 
Q 37.109375 16.65625 35.6875 18.0625 
Q 34.28125 19.484375 32.15625 20.1875 
Q 30.03125 20.90625 22.609375 22.703125 
Q 11.578125 25.34375 8.03125 29.09375 
Q 4.5 32.859375 4.5 38.09375 
Q 4.5 44.578125 9.671875 48.78125 
Q 14.84375 52.984375 23.578125 52.984375 
Q 32.859375 52.984375 38.015625 49.34375 
Q 43.171875 45.703125 44.1875 38.484375 
z
" id="ArialUnicodeMS-73"/>
     </defs>
     <g style="fill:#555555;" transform="translate(478.025142 172.080375)rotate(-90)scale(0.12 -0.12)">
      <use xlink:href="#ArialUnicodeMS-4c"/>
      <use x="55.615234" xlink:href="#ArialUnicodeMS-6f"/>
      <use x="111.230469" xlink:href="#ArialUnicodeMS-73"/>
      <use x="161.230469" xlink:href="#ArialUnicodeMS-73"/>
     </g>
    </g>
   </g>
   <g id="line2d_55">
    <path clip-path="url(#p313f8b7628)" d="M 517.643456 35.861795 
L 522.654712 156.127505 
L 527.665968 128.915557 
L 532.677224 139.279702 
L 537.68848 129.845024 
L 542.699736 130.705568 
L 547.710992 131.05733 
L 552.722248 146.513975 
L 557.733503 138.138275 
L 562.744759 138.632045 
L 567.756015 132.626927 
L 572.767271 144.901757 
L 577.778527 130.953004 
L 582.789783 135.214174 
L 587.801039 114.739436 
L 592.812294 123.155743 
L 597.82355 131.181563 
L 602.834806 143.608766 
L 607.846062 138.725933 
L 612.857318 139.642138 
L 617.868574 143.026328 
L 622.87983 138.369054 
L 627.891086 135.714883 
L 632.902341 147.043663 
L 637.913597 134.26699 
L 642.924853 139.661001 
L 647.936109 147.578364 
L 652.947365 140.582794 
L 657.958621 154.02209 
L 662.969877 168.061188 
L 667.981133 180.961622 
L 672.992388 168.29376 
L 678.003644 166.116805 
L 683.0149 178.414777 
L 688.026156 177.743876 
L 693.037412 178.716979 
L 698.048668 170.768624 
L 703.059924 177.217893 
L 708.071179 184.72095 
L 713.082435 189.809143 
L 718.093691 190.431012 
L 723.104947 190.690563 
L 728.116203 194.180225 
L 733.127459 186.091804 
L 738.138715 199.36601 
L 743.149971 196.98546 
L 748.161226 208.831092 
L 753.172482 206.441559 
L 758.183738 212.532597 
L 763.194994 217.970185 
L 768.20625 214.747204 
L 773.217506 211.711014 
L 778.228762 211.583091 
L 783.240017 217.868402 
L 788.251273 210.898737 
L 793.262529 213.311441 
L 798.273785 219.396936 
L 803.285041 226.147201 
L 808.296297 225.427209 
L 813.307553 226.456974 
L 818.318809 223.786616 
L 823.330064 223.349831 
L 828.34132 282.952705 
L 833.352576 231.180407 
L 838.363832 240.511891 
L 843.375088 240.000243 
L 848.386344 237.714066 
L 853.3976 240.948191 
L 858.408855 234.993751 
L 863.420111 241.139803 
L 868.431367 245.296735 
L 873.442623 241.727153 
L 878.453879 245.653011 
" style="fill:none;stroke:#e24a33;stroke-linecap:square;stroke-width:1.5;"/>
   </g>
   <g id="line2d_56">
    <path clip-path="url(#p313f8b7628)" d="M 517.643456 220.363805 
L 522.654712 218.29072 
L 527.665968 215.815562 
L 532.677224 184.225827 
L 537.68848 149.581216 
L 542.699736 181.977347 
L 547.710992 179.366576 
L 552.722248 177.067976 
L 557.733503 169.247927 
L 562.744759 168.821228 
L 567.756015 121.362792 
L 572.767271 134.297644 
L 577.778527 101.308593 
L 582.789783 116.995973 
L 587.801039 85.378805 
L 592.812294 125.994278 
L 597.82355 124.226115 
L 602.834806 128.199447 
L 607.846062 126.070523 
L 612.857318 119.570988 
L 617.868574 106.817971 
L 622.87983 99.130065 
L 627.891086 105.43024 
L 632.902341 108.660204 
L 637.913597 80.105836 
L 642.924853 99.688068 
L 647.936109 85.349812 
L 652.947365 87.968492 
L 657.958621 71.956813 
L 662.969877 115.035154 
L 667.981133 129.300282 
L 672.992388 91.49438 
L 678.003644 108.854507 
L 683.0149 108.409886 
L 688.026156 114.085721 
L 693.037412 109.013113 
L 698.048668 124.718871 
L 703.059924 98.569062 
L 708.071179 120.890472 
L 713.082435 117.696382 
L 718.093691 125.581708 
L 723.104947 127.712131 
L 728.116203 122.187933 
L 733.127459 134.884655 
L 738.138715 149.880493 
L 743.149971 153.798441 
L 748.161226 158.59981 
L 753.172482 164.544268 
L 758.183738 167.167079 
L 763.194994 160.181904 
L 768.20625 168.650874 
L 773.217506 162.696419 
L 778.228762 155.235072 
L 783.240017 157.679606 
L 788.251273 177.066065 
L 793.262529 173.2091 
L 798.273785 178.013792 
L 803.285041 166.92273 
L 808.296297 163.614742 
L 813.307553 172.538669 
L 818.318809 156.621113 
L 823.330064 130.393354 
L 828.34132 142.923942 
L 833.352576 146.489011 
L 838.363832 156.483002 
L 843.375088 155.557137 
L 848.386344 151.659285 
L 853.3976 153.689308 
L 858.408855 152.360311 
L 863.420111 154.897424 
L 868.431367 156.653061 
L 873.442623 158.412241 
L 878.453879 146.126766 
" style="fill:none;stroke:#348abd;stroke-linecap:square;stroke-width:1.5;"/>
   </g>
   <g id="patch_9">
    <path d="M 505.315767 295.30725 
L 505.315767 23.50725 
" style="fill:none;stroke:#ffffff;stroke-linecap:square;stroke-linejoin:miter;"/>
   </g>
   <g id="patch_10">
    <path d="M 885.770312 295.30725 
L 885.770312 23.50725 
" style="fill:none;stroke:#ffffff;stroke-linecap:square;stroke-linejoin:miter;"/>
   </g>
   <g id="patch_11">
    <path d="M 505.315767 295.30725 
L 885.770313 295.30725 
" style="fill:none;stroke:#ffffff;stroke-linecap:square;stroke-linejoin:miter;"/>
   </g>
   <g id="patch_12">
    <path d="M 505.315767 23.50725 
L 885.770313 23.50725 
" style="fill:none;stroke:#ffffff;stroke-linecap:square;stroke-linejoin:miter;"/>
   </g>
   <g id="text_32">
    <!-- Loss -->
    <g transform="translate(680.33529 17.50725)scale(0.144 -0.144)">
     <use xlink:href="#ArialUnicodeMS-4c"/>
     <use x="55.615234" xlink:href="#ArialUnicodeMS-6f"/>
     <use x="111.230469" xlink:href="#ArialUnicodeMS-73"/>
     <use x="161.230469" xlink:href="#ArialUnicodeMS-73"/>
    </g>
   </g>
   <g id="legend_2">
    <g id="patch_13">
     <path d="M 827.31875 59.80725 
L 878.770312 59.80725 
Q 880.770312 59.80725 880.770312 57.80725 
L 880.770312 30.50725 
Q 880.770312 28.50725 878.770312 28.50725 
L 827.31875 28.50725 
Q 825.31875 28.50725 825.31875 30.50725 
L 825.31875 57.80725 
Q 825.31875 59.80725 827.31875 59.80725 
z
" style="fill:#e5e5e5;opacity:0.8;stroke:#cccccc;stroke-linejoin:miter;stroke-width:0.5;"/>
    </g>
    <g id="line2d_57">
     <path d="M 829.31875 36.165063 
L 849.31875 36.165063 
" style="fill:none;stroke:#e24a33;stroke-linecap:square;stroke-width:1.5;"/>
    </g>
    <g id="line2d_58"/>
    <g id="text_33">
     <!-- train -->
     <g transform="translate(857.31875 39.665063)scale(0.1 -0.1)">
      <use xlink:href="#ArialUnicodeMS-74"/>
      <use x="27.783203" xlink:href="#ArialUnicodeMS-72"/>
      <use x="61.083984" xlink:href="#ArialUnicodeMS-61"/>
      <use x="116.699219" xlink:href="#ArialUnicodeMS-69"/>
      <use x="138.916016" xlink:href="#ArialUnicodeMS-6e"/>
     </g>
    </g>
    <g id="line2d_59">
     <path d="M 829.31875 50.315063 
L 849.31875 50.315063 
" style="fill:none;stroke:#348abd;stroke-linecap:square;stroke-width:1.5;"/>
    </g>
    <g id="line2d_60"/>
    <g id="text_34">
     <!-- dev -->
     <g transform="translate(857.31875 53.815063)scale(0.1 -0.1)">
      <use xlink:href="#ArialUnicodeMS-64"/>
      <use x="55.615234" xlink:href="#ArialUnicodeMS-65"/>
      <use x="111.230469" xlink:href="#ArialUnicodeMS-76"/>
     </g>
    </g>
   </g>
  </g>
 </g>
 <defs>
  <clipPath id="p2cfe761ef0">
   <rect height="271.8" width="380.454545" x="48.770313" y="23.50725"/>
  </clipPath>
  <clipPath id="p313f8b7628">
   <rect height="271.8" width="380.454545" x="505.315767" y="23.50725"/>
  </clipPath>
 </defs>
</svg>
